<?xml version="1.0" standalone="no"?>
<!DOCTYPE svg PUBLIC "-//W3C//DTD SVG 1.1//EN" "http://www.w3.org/Graphics/SVG/1.1/DTD/svg11.dtd" >
<svg xmlns="http://www.w3.org/2000/svg">
<metadata>
This is a custom SVG webfont generated by Font Squirrel.
Copyright   : Copyright URW Software Copyright 1992 by URW
</metadata>
<defs>
<font id="FuturTBooBook" horiz-adv-x="1160" >
<font-face units-per-em="2048" ascent="1638" descent="-410" />
<missing-glyph horiz-adv-x="512" />
<glyph unicode=" "  horiz-adv-x="512" />
<glyph unicode="&#x09;" horiz-adv-x="512" />
<glyph unicode="&#xa0;" horiz-adv-x="512" />
<glyph unicode="!" horiz-adv-x="570" d="M184 82q0 42 29 71t71 29q44 0 74 -29t30 -71q0 -44 -30 -73t-74 -29q-42 0 -71 29t-29 73zM210 276v1090h150v-1090h-150z" />
<glyph unicode="&#x22;" horiz-adv-x="672" d="M108 1366h166l-28 -548h-110zM402 1366h164l-28 -548h-110z" />
<glyph unicode="#" horiz-adv-x="1228" d="M100 434v124h234l34 284h-216v122h234l48 412l130 -16l-50 -396h288l52 412l126 -16l-48 -396h212v-122h-224l-38 -284h212v-124h-226l-54 -440l-128 18l52 422h-290l-54 -440l-128 18l52 422h-218zM464 558h288l34 284h-286z" />
<glyph unicode="$" d="M158 332l148 40q52 -232 242 -246v552q-174 72 -247 153t-73 203q0 134 87 228t233 116v184h122v-186q184 -26 286 -206l-118 -78q-44 68 -79 98t-89 42v-448q188 -82 262 -166t74 -218q0 -152 -91 -262t-245 -146v-198h-122v190q-150 8 -251 98t-139 250zM380 1030 q0 -114 168 -192v396q-78 -20 -123 -74t-45 -130zM670 138q182 74 182 254q0 76 -42 129t-140 101v-484z" />
<glyph unicode="%" horiz-adv-x="1464" d="M68 1082q0 124 88 211t216 87q126 0 215 -87t89 -211q0 -122 -90 -210t-214 -88q-126 0 -215 87t-89 211zM188 1084q0 -76 54 -130t130 -54t130 54t54 130t-54 130t-130 54t-130 -54t-54 -130zM294 20l796 1372l78 -44l-796 -1374zM788 282q0 124 89 212t217 88 q126 0 214 -88t88 -212q0 -122 -89 -209t-213 -87q-128 0 -217 86t-89 210zM910 284q0 -76 54 -130t130 -54t129 54t53 130t-53 130t-129 54t-130 -54t-54 -130z" />
<glyph unicode="&#x26;" horiz-adv-x="1302" d="M108 360q0 184 192 336q42 32 160 110q-80 106 -108 168t-28 126q0 124 85 206t213 82q124 0 208 -78t84 -192q0 -92 -49 -161t-193 -179l286 -366q70 74 156 180l108 -92q-86 -116 -174 -204l234 -296h-190l-150 190q-234 -216 -434 -216q-172 0 -286 110t-114 276z M258 358q0 -98 73 -172t171 -74q140 0 350 192l-304 392q-8 -6 -11 -8l-6 -4q-3 -2 -17 -12t-38 -26q-120 -80 -169 -145t-49 -143zM468 1108q0 -42 16 -72t90 -132q2 0 4 -4l4 -6l2 -6q122 90 153 128t31 102q0 60 -43 100t-107 40q-62 0 -106 -43t-44 -107z" />
<glyph unicode="'" horiz-adv-x="382" d="M108 1366h166l-28 -548h-110z" />
<glyph unicode="(" horiz-adv-x="602" d="M170 568q0 270 60 582q44 214 110 352l132 -60q-154 -394 -154 -874q0 -482 154 -878l-132 -58q-66 140 -110 350q-60 312 -60 586z" />
<glyph unicode=")" horiz-adv-x="602" d="M130 -310q152 392 152 878q0 482 -152 874l128 60q68 -138 112 -352q60 -312 60 -582q0 -274 -60 -586q-44 -212 -112 -350z" />
<glyph unicode="*" d="M242 1198l42 130l238 -88l-10 252h138l-12 -252l238 88l44 -130l-246 -70l158 -198l-112 -82l-140 212l-140 -212l-110 82l158 198z" />
<glyph unicode="+" d="M98 634v126h420v412h126v-412h418v-126h-418v-412h-126v412h-420z" />
<glyph unicode="," horiz-adv-x="464" d="M50 -272l170 472l132 -48l-204 -464z" />
<glyph unicode="-" horiz-adv-x="370" d="M0 370v132h370v-132h-370z" />
<glyph unicode="." horiz-adv-x="464" d="M132 80q0 44 29 73t71 29q44 0 73 -29t29 -73q0 -42 -29 -71t-73 -29q-42 0 -71 29t-29 71z" />
<glyph unicode="/" horiz-adv-x="992" d="M-28 -314l892 1816l120 -54l-894 -1816z" />
<glyph unicode="0" d="M92 682q0 298 141 501t349 203t348 -201t140 -503q0 -300 -141 -502t-349 -202q-206 0 -347 203t-141 501zM242 686q0 -244 96 -406t240 -162q146 0 244 163t98 403t-98 402t-242 162q-142 0 -240 -163t-98 -399z" />
<glyph unicode="1" d="M316 1224l80 142h298v-1366h-154v1224h-224z" />
<glyph unicode="2" d="M102 0l496 576q136 158 187 245t51 163q0 112 -79 188t-195 76q-122 0 -192 -72t-82 -210h-152q16 164 72 244q58 82 151 129t199 47q180 0 304 -115t124 -285q0 -116 -57 -218t-239 -308l-278 -318h572v-142h-882z" />
<glyph unicode="3" d="M134 354h146q16 -114 84 -175t178 -61q112 0 191 79t79 195q0 252 -292 258v132q270 6 270 234q0 100 -65 166t-163 66q-106 0 -161 -50t-75 -170h-150q52 358 380 358q168 0 276 -104t108 -262q0 -204 -174 -304q194 -94 194 -334q0 -174 -121 -289t-303 -115 q-116 0 -212 53t-146 145q-36 66 -44 178z" />
<glyph unicode="4" d="M38 224l852 1216v-1080h168v-136h-168v-224h-150v224h-702zM308 360h432v616z" />
<glyph unicode="5" d="M68 222l120 86q120 -190 310 -190q144 0 242 101t98 249q0 140 -98 238t-240 98q-120 0 -264 -92l198 654h542v-142h-436l-90 -292q42 8 78 8q198 0 329 -135t131 -341q0 -208 -144 -347t-358 -139q-268 0 -418 244z" />
<glyph unicode="6" d="M108 444q0 154 114 310l464 646l114 -86l-314 -438q72 22 122 22q184 0 312 -132t128 -322q0 -194 -137 -330t-331 -136q-196 0 -334 136t-138 330zM258 440q0 -134 94 -228t228 -94q132 0 226 94t94 228t-94 228t-226 94q-134 0 -228 -94t-94 -228z" />
<glyph unicode="7" d="M120 48l774 1176h-744v142h1006l-916 -1398z" />
<glyph unicode="8" d="M174 380q0 224 202 330q-80 48 -124 127t-44 173q0 162 110 269t276 107q162 0 271 -107t109 -267q0 -92 -47 -175t-125 -127q94 -46 147 -133t53 -197q0 -176 -117 -289t-297 -113q-178 0 -296 114t-118 288zM324 380q0 -110 77 -186t187 -76t187 76t77 186 q0 108 -77 185t-187 77t-187 -77t-77 -185zM354 1010q0 -98 69 -168t169 -70t169 70t69 168t-69 168t-169 70t-169 -70t-69 -168z" />
<glyph unicode="9" d="M110 922q0 192 138 328t334 136q194 0 332 -136t138 -328q0 -156 -112 -310l-466 -644l-114 84l314 438q-66 -18 -122 -18q-186 0 -314 130t-128 320zM260 928q0 -134 94 -228t228 -94t228 94t94 228q0 132 -94 226t-228 94t-228 -94t-94 -226z" />
<glyph unicode=":" horiz-adv-x="464" d="M132 80q0 44 29 73t71 29q44 0 73 -29t29 -73q0 -42 -29 -71t-73 -29q-42 0 -71 29t-29 71zM132 768q0 42 29 71t71 29t71 -29t29 -71t-29 -71t-71 -29t-71 29t-29 71z" />
<glyph unicode=";" horiz-adv-x="464" d="M50 -272l170 472l132 -48l-204 -464zM164 768q0 42 29 71t71 29t71 -29t29 -71t-29 -71t-71 -29t-71 29t-29 71z" />
<glyph unicode="&#x3c;" horiz-adv-x="1024" d="M68 622v134l886 418v-154l-722 -330l722 -332v-152z" />
<glyph unicode="=" d="M98 510v118h964v-118h-964zM98 764v118h964v-118h-964z" />
<glyph unicode="&#x3e;" horiz-adv-x="1024" d="M70 206v152l722 332l-722 330v154l886 -418v-134z" />
<glyph unicode="?" horiz-adv-x="892" d="M116 1080q0 128 96 215t238 87q140 0 234 -94t94 -234q0 -82 -34 -153t-94 -111q-58 -38 -212 -84q-138 -38 -138 -148q0 -64 42 -106t104 -42q134 0 146 176h148q-2 -144 -83 -229t-211 -85q-126 0 -210 85t-84 211q0 104 59 169t189 107q92 28 117 39t53 33 q58 46 58 136q0 82 -53 136t-133 54q-76 0 -128 -50t-52 -124q0 -36 12 -92h-150q-8 52 -8 104zM346 82q0 42 29 71t71 29q44 0 73 -29t29 -71q0 -44 -29 -73t-73 -29q-42 0 -71 29t-29 73z" />
<glyph unicode="@" horiz-adv-x="1474" d="M52 682q0 300 204 504t506 204q280 0 466 -175t186 -437q0 -198 -99 -344t-233 -146q-110 0 -146 120q-64 -68 -120 -96t-132 -28q-148 0 -246 106t-98 266q0 176 110 288t280 112q140 0 234 -114l10 98h136l-56 -464q-6 -36 -6 -98q0 -26 15 -43t39 -17q74 0 131 107 t57 243q0 220 -148 360t-384 140q-242 0 -408 -170t-166 -418q0 -256 169 -418t437 -162q128 0 219 23t231 89l42 -118q-242 -118 -492 -118q-324 0 -531 198t-207 508zM496 652q0 -102 55 -168t141 -66q100 0 172 87t72 205q0 94 -57 154t-145 60q-102 0 -170 -78t-68 -194 z" />
<glyph unicode="A" horiz-adv-x="1268" d="M14 0l630 1432l614 -1432h-168l-162 388h-584l-164 -388h-166zM408 528h460l-226 548z" />
<glyph unicode="B" horiz-adv-x="1084" d="M178 0v1366h248q206 0 310 -86q126 -100 126 -282q0 -170 -134 -266q122 -36 190 -127t68 -219q0 -182 -138 -294q-114 -92 -330 -92h-340zM332 142h174q96 0 147 12t93 46q88 76 88 192q0 62 -32 117t-84 83q-76 42 -232 42h-154v-492zM332 764h114q266 0 266 234 q0 226 -262 226h-118v-460z" />
<glyph unicode="C" horiz-adv-x="1322" d="M102 678q0 292 210 501t504 209q116 0 208 -30t196 -104v-190q-194 182 -416 182t-385 -167t-163 -397q0 -234 161 -399t391 -165q220 0 412 178v-188q-196 -132 -406 -132q-294 0 -503 206t-209 496z" />
<glyph unicode="D" horiz-adv-x="1296" d="M178 0v1366h280q312 0 502 -158q236 -194 236 -528q0 -322 -240 -522q-102 -84 -218 -121t-282 -37h-278zM332 142h132q262 0 420 148t158 392q0 248 -158 395t-420 147h-132v-1082z" />
<glyph unicode="E" horiz-adv-x="986" d="M178 0v1366h706v-142h-552v-406h538v-142h-538v-534h552v-142h-706z" />
<glyph unicode="F" horiz-adv-x="886" d="M178 0v1366h620v-142h-466v-406h452v-142h-452v-676h-154z" />
<glyph unicode="G" horiz-adv-x="1552" d="M102 680q0 296 210 502t512 206q168 0 301 -70t265 -226l-112 -102q-194 256 -454 256q-238 0 -403 -165t-165 -403q0 -230 164 -395t392 -165q124 0 240 65t178 169q48 78 56 192h-406v142h570v-34q0 -146 -29 -246t-97 -184q-92 -116 -231 -181t-291 -65 q-286 0 -493 207t-207 497z" />
<glyph unicode="H" horiz-adv-x="1356" d="M178 0v1366h154v-558h696v558h154v-1366h-154v668h-696v-668h-154z" />
<glyph unicode="I" horiz-adv-x="506" d="M178 0v1366h154v-1366h-154z" />
<glyph unicode="J" horiz-adv-x="628" d="M-96 -40l84 118q52 -46 83 -61t75 -15q80 0 115 62t35 198v1104h154v-1104q0 -130 -23 -203t-79 -123q-82 -78 -194 -78q-124 0 -250 102z" />
<glyph unicode="K" horiz-adv-x="1164" d="M178 0v1366h154v-586l582 586h204l-640 -636l660 -730h-208l-560 626l-38 -38v-588h-154z" />
<glyph unicode="L" horiz-adv-x="732" d="M178 0v1366h154v-1224h374v-142h-528z" />
<glyph unicode="M" horiz-adv-x="1766" d="M130 0l224 1442l524 -1154l538 1156l210 -1444h-156l-126 950l-466 -1008l-458 1008l-136 -950h-154z" />
<glyph unicode="N" horiz-adv-x="1570" d="M178 0v1424l1064 -1116v1058h152v-1428l-1062 1114v-1052h-154z" />
<glyph unicode="O" horiz-adv-x="1626" d="M102 680q0 292 210 500t504 208q292 0 500 -208t208 -498t-208 -498t-500 -208q-296 0 -505 206t-209 498zM256 680q0 -232 164 -397t394 -165t393 165t163 397q0 236 -162 401t-394 165t-395 -165t-163 -401z" />
<glyph unicode="P" horiz-adv-x="934" d="M178 0v1366h248q234 0 344 -96q128 -108 128 -290q0 -178 -117 -280t-317 -102h-132v-598h-154zM332 738h122q140 0 217 65t77 183q0 238 -304 238h-112v-486z" />
<glyph unicode="Q" horiz-adv-x="1626" d="M102 680q0 294 209 501t505 207q292 0 500 -209t208 -505q0 -140 -45 -251t-151 -229l204 -208h-194l-116 122q-184 -132 -410 -132q-294 0 -502 206t-208 498zM256 680q0 -236 160 -399t392 -163q172 0 308 100l-330 330h200l234 -244q82 90 116 176t34 202 q0 236 -162 400t-394 164q-234 0 -396 -164t-162 -402z" />
<glyph unicode="R" horiz-adv-x="1028" d="M178 0v1366h222q222 0 328 -74q70 -48 110 -129t40 -173q0 -158 -93 -261t-251 -119l434 -610h-186l-412 598h-38v-598h-154zM332 734h96q148 0 225 65t77 191q0 234 -308 234h-90v-490z" />
<glyph unicode="S" horiz-adv-x="1058" d="M102 328l148 40q54 -250 274 -250q118 0 198 78t80 192q0 124 -112 194q-62 40 -118 62l-42 20l-40 18l-42 18q-148 66 -212 144t-64 194q0 148 110 249t274 101q230 0 352 -212l-122 -78q-52 82 -104 115t-132 33q-94 0 -159 -61t-65 -151q0 -92 86 -148q56 -34 106 -56 l44 -22l42 -18l44 -18q164 -72 236 -159t72 -215q0 -178 -124 -300t-306 -122q-164 0 -274 91t-150 261z" />
<glyph unicode="T" horiz-adv-x="870" d="M26 1224v142h816v-142h-332v-1224h-154v1224h-330z" />
<glyph unicode="U" horiz-adv-x="1328" d="M178 488v878h154v-838q0 -184 44 -262q40 -64 121 -106t169 -42q86 0 166 41t120 107q46 82 46 262v838h152v-878q0 -210 -90 -324q-68 -88 -173 -138t-221 -50q-118 0 -225 50t-173 138q-90 114 -90 324z" />
<glyph unicode="V" horiz-adv-x="1134" d="M14 1366h168l388 -1040l386 1040h166l-554 -1446z" />
<glyph unicode="W" horiz-adv-x="1954" d="M14 1366h166l364 -1024l428 1094l404 -1094l402 1024h166l-572 -1436l-404 1092l-430 -1092z" />
<glyph unicode="X" horiz-adv-x="1028" d="M26 0l404 706l-368 660h174l282 -514l288 514h174l-376 -660l396 -706h-170l-314 562l-318 -562h-172z" />
<glyph unicode="Y" horiz-adv-x="1080" d="M14 1366h176l348 -610l352 610h180l-456 -778v-588h-154v588z" />
<glyph unicode="Z" horiz-adv-x="1092" d="M48 0l744 1224h-648v142h900l-742 -1224h724v-142h-978z" />
<glyph unicode="[" horiz-adv-x="594" d="M164 -360v1852h344v-136h-194v-1580h194v-136h-344z" />
<glyph unicode="\" horiz-adv-x="992" d="M10 1448l120 54l892 -1816l-118 -54z" />
<glyph unicode="]" horiz-adv-x="594" d="M88 -224h194v1580h-194v136h344v-1852h-344v136z" />
<glyph unicode="^" horiz-adv-x="1024" d="M50 746l360 624h202l360 -624h-166l-296 502l-294 -502h-166z" />
<glyph unicode="_" horiz-adv-x="1024" d="M0 -132h1024v-140h-1024v140z" />
<glyph unicode="`" horiz-adv-x="1024" d="M234 1296l152 68l214 -294l-90 -52z" />
<glyph unicode="a" horiz-adv-x="1072" d="M86 426q0 194 115 319t293 125q174 0 294 -140v120h146v-850h-146v118q-116 -142 -294 -142q-176 0 -292 128t-116 322zM236 432q0 -142 78 -233t200 -91q128 0 206 90t78 232q0 136 -80 222t-206 86q-116 0 -196 -88t-80 -218z" />
<glyph unicode="b" horiz-adv-x="1072" d="M140 0v1492h144v-762q120 138 296 138q178 0 293 -125t115 -317q0 -194 -116 -322t-290 -128q-182 0 -298 140v-116h-144zM274 430q0 -144 79 -233t207 -89q122 0 200 91t78 231q0 130 -80 218t-196 88q-126 0 -207 -86t-81 -220z" />
<glyph unicode="c" horiz-adv-x="890" d="M84 420q0 190 130 319t324 129q140 0 262 -80v-192q-72 78 -131 109t-137 31q-128 0 -213 -90t-85 -224q0 -132 85 -223t207 -91q84 0 145 33t135 115v-192q-138 -88 -272 -88q-190 0 -320 128t-130 316z" />
<glyph unicode="d" horiz-adv-x="1072" d="M86 426q0 192 115 317t293 125q174 0 294 -138v762h146v-1492h-148v116q-106 -140 -292 -140q-176 0 -292 128t-116 322zM236 430q0 -140 78 -231t200 -91q128 0 205 88t77 234q0 136 -78 221t-206 85q-116 0 -196 -88t-80 -218z" />
<glyph unicode="e" horiz-adv-x="984" d="M84 426q0 194 116 318t298 124t293 -122t111 -322v-28h-664q6 -130 80 -209t190 -79q84 0 142 40t120 138l122 -68q-138 -242 -392 -242q-184 0 -300 125t-116 325zM248 518h500q-20 100 -88 160t-162 60q-92 0 -164 -63t-86 -157z" />
<glyph unicode="f" horiz-adv-x="488" d="M60 714v136h80v362q0 306 248 306q48 0 112 -18v-148q-58 20 -98 20q-70 0 -94 -40t-24 -154v-328h216v-136h-216v-714h-144v714h-80z" />
<glyph unicode="g" horiz-adv-x="1074" d="M84 422q0 194 117 321t295 127q172 0 292 -140v120h146v-832q0 -126 -18 -199t-64 -135q-116 -158 -338 -158q-184 0 -296 105t-118 285h144q22 -256 272 -256q272 0 272 334v124q-122 -140 -298 -140q-174 0 -290 127t-116 317zM234 424q0 -138 78 -226t200 -88t202 89 t80 225q0 138 -79 226t-203 88q-122 0 -200 -89t-78 -225z" />
<glyph unicode="h" horiz-adv-x="960" d="M140 0v1492h144v-742q56 64 112 91t134 27q162 0 242 -116q50 -76 50 -226v-526h-146v516q0 116 -41 168t-135 52q-114 0 -165 -74t-51 -238v-424h-144z" />
<glyph unicode="i" horiz-adv-x="424" d="M108 1172q0 44 30 74t74 30t75 -30t31 -74t-31 -74t-75 -30t-74 30t-30 74zM140 0v850h144v-850h-144z" />
<glyph unicode="j" horiz-adv-x="424" d="M108 1172q0 44 30 74t74 30t75 -30t31 -74t-31 -74t-75 -30t-74 30t-30 74zM140 -480v1330h144v-1330h-144z" />
<glyph unicode="k" horiz-adv-x="862" d="M140 0v1492h144v-956l308 314h194l-362 -362l432 -488h-192l-342 388l-38 -38v-350h-144z" />
<glyph unicode="l" horiz-adv-x="422" d="M140 0v1492h144v-1492h-144z" />
<glyph unicode="m" horiz-adv-x="1392" d="M140 0v850h144v-92q84 112 212 112q156 0 234 -136q78 136 250 136q280 0 280 -332v-538h-146v516q0 116 -37 169t-119 53q-186 0 -186 -266v-472h-146v504q0 234 -152 234q-190 0 -190 -276v-462h-144z" />
<glyph unicode="n" horiz-adv-x="960" d="M140 0v850h144v-102q56 68 111 95t135 27q166 0 244 -116q48 -82 48 -228v-526h-146v502q0 132 -40 185t-140 53q-112 0 -162 -75t-50 -241v-424h-144z" />
<glyph unicode="o" horiz-adv-x="1066" d="M84 422q0 186 130 316t318 130q190 0 321 -129t131 -317t-131 -317t-321 -129q-188 0 -318 130t-130 316zM234 422q0 -136 84 -225t212 -89q132 0 218 89t86 225q0 138 -85 226t-219 88q-128 0 -212 -89t-84 -225z" />
<glyph unicode="p" horiz-adv-x="1072" d="M140 -480v1330h144v-120q118 140 298 140q178 0 293 -129t115 -329q0 -188 -117 -312t-293 -124q-174 0 -296 142v-598h-144zM276 416q0 -134 82 -221t206 -87q116 0 196 89t80 217q0 142 -78 233t-200 91q-126 0 -206 -90t-80 -232z" />
<glyph unicode="q" horiz-adv-x="1072" d="M86 412q0 200 114 329t292 129q190 0 294 -140v120h148v-1330h-146v598q-122 -142 -294 -142q-176 0 -292 124t-116 312zM236 414q0 -128 80 -217t196 -89q128 0 206 86t78 222q0 146 -77 234t-205 88q-122 0 -200 -91t-78 -233z" />
<glyph unicode="r" horiz-adv-x="604" d="M140 0v850h144v-92q58 68 96 90t98 22q62 0 128 -36l-68 -132q-50 30 -86 30q-88 0 -128 -68t-40 -216v-448h-144z" />
<glyph unicode="s" horiz-adv-x="716" d="M72 192l128 54q38 -78 74 -108t98 -30q58 0 98 39t40 95q0 48 -28 76t-110 64q-148 64 -197 114t-49 134q0 104 72 171t182 67q150 0 228 -154l-120 -62q-44 84 -118 84q-44 0 -74 -27t-30 -65q0 -40 28 -65t110 -59q154 -64 205 -118t51 -150q0 -116 -84 -196t-206 -80 q-216 0 -298 216z" />
<glyph unicode="t" horiz-adv-x="438" d="M52 714v136h88v308h144v-308h152v-136h-152v-714h-144v714h-88z" />
<glyph unicode="u" horiz-adv-x="952" d="M140 338v512h144v-496q0 -130 46 -188t148 -58q100 0 145 58t45 188v496h146v-512q0 -170 -78 -256q-94 -106 -258 -106q-166 0 -260 106q-78 86 -78 256z" />
<glyph unicode="v" horiz-adv-x="866" d="M16 850h164l254 -572l252 572h164l-416 -908z" />
<glyph unicode="w" horiz-adv-x="1396" d="M16 850h164l252 -576l266 642l264 -642l254 576h164l-422 -910l-262 634l-262 -634z" />
<glyph unicode="x" horiz-adv-x="928" d="M16 0l362 452l-308 398h178l220 -288l224 288h180l-310 -398l352 -452h-176l-270 346l-270 -346h-182z" />
<glyph unicode="y" horiz-adv-x="942" d="M16 850h168l302 -608l274 608h166l-630 -1330h-162l274 560z" />
<glyph unicode="z" horiz-adv-x="942" d="M16 0l616 714h-500v136h792l-612 -714h586v-136h-882z" />
<glyph unicode="{" horiz-adv-x="594" d="M104 510v120q118 30 118 184v398q0 150 61 217t197 67q4 0 52 -4v-126h-14q-92 0 -120 -34t-28 -144v-384q0 -100 -26 -149t-98 -89q70 -40 97 -92t27 -150v-372q0 -120 28 -152t134 -32v-126q-24 -2 -54 -2q-138 0 -197 69t-59 233v378q0 88 -27 131t-91 59z" />
<glyph unicode="|" horiz-adv-x="1024" d="M436 -342v1708h154v-1708h-154z" />
<glyph unicode="}" horiz-adv-x="594" d="M64 -232h14q92 0 120 34t28 144v384q0 100 26 150t98 88q-70 40 -97 92t-27 148v372q0 122 -28 154t-134 30v128h54q138 0 197 -68t59 -232v-376q0 -88 27 -132t91 -62v-120q-62 -14 -90 -57t-28 -123v-402q0 -148 -61 -214t-197 -66h-52v128z" />
<glyph unicode="~" horiz-adv-x="1366" d="M190 1252q64 130 128 182t154 52q82 0 228 -68q138 -66 202 -66q56 0 96 30t86 108l92 -52q-114 -232 -290 -232q-46 0 -150 36q-4 2 -6 2q-12 4 -136 60q-86 38 -134 38q-100 0 -182 -150z" />
<glyph unicode="&#xa1;" horiz-adv-x="566" d="M184 964q0 42 29 71t71 29t72 -29t30 -71t-30 -71t-72 -29t-71 29t-29 71zM210 -320v1088h148v-1088h-148z" />
<glyph unicode="&#xa2;" d="M200 694q0 170 108 296t274 148v194h118v-192q114 -10 218 -78v-192q-108 120 -218 138v-622q64 10 114 42t110 102v-192q-122 -80 -224 -86v-202h-118v204q-166 22 -274 146t-108 294zM350 696q0 -116 64 -202t168 -106v616q-102 -20 -167 -107t-65 -201z" />
<glyph unicode="&#xa3;" d="M108 54q112 166 264 174q60 90 60 172q0 30 -14 84h-230v116h180l-58 116q-54 104 -72 161t-18 127q0 160 116 270t286 110q176 0 283 -109t115 -297l-150 -40q-8 100 -22 148q-22 68 -83 109t-139 41q-110 0 -182 -69t-72 -173q0 -54 23 -115t89 -181q34 -60 50 -98h258 v-116h-216q12 -44 12 -82q0 -80 -60 -196q30 -10 52 -17t41 -14t27 -9q118 -42 152 -42q48 0 83 30t81 108l124 -74q-104 -210 -280 -210q-78 0 -226 52q-138 52 -192 52q-92 0 -164 -108z" />
<glyph unicode="&#xa4;" horiz-adv-x="1366" d="M108 1220l84 86l198 -194q92 62 153 84t143 22q80 0 141 -22t149 -82l196 192l84 -86l-194 -192q58 -88 81 -151t23 -141t-22 -138t-82 -150l196 -196l-82 -84l-198 194q-84 -58 -148 -81t-146 -23q-136 0 -292 102l-196 -192l-84 84l196 192q-108 152 -108 292 q0 80 23 144t81 146zM340 738q0 -142 101 -243t243 -101t243 101t101 243t-101 244t-243 102t-243 -102t-101 -244z" />
<glyph unicode="&#xa5;" d="M54 1366h176l348 -610l352 610h178l-272 -464h222v-118h-290l-102 -178h392v-116h-404v-490h-154v490h-398v116h386l-100 178h-286v118h218z" />
<glyph unicode="&#xa6;" horiz-adv-x="1024" d="M436 314h154v-656h-154v656zM436 682v684h154v-684h-154z" />
<glyph unicode="&#xa7;" d="M206 570q0 230 206 320q-172 100 -172 280q0 146 104 243t258 97q92 0 172 -44t120 -116q48 -90 54 -228h-144q-8 248 -202 248q-98 0 -156 -59t-58 -153q0 -96 68 -144q46 -32 180 -78q176 -62 247 -143t71 -221q0 -108 -47 -183t-157 -139q96 -56 134 -119t38 -165 q0 -154 -98 -248t-260 -94q-340 0 -354 380h148q8 -128 57 -184t153 -56q98 0 151 55t53 155q0 114 -88 166q-42 24 -184 82q-164 62 -229 140t-65 208zM358 574q0 -92 66 -158t156 -66q92 0 156 66t64 158t-64 157t-156 65t-157 -65t-65 -157z" />
<glyph unicode="&#xa8;" horiz-adv-x="1024" d="M232 1126q0 44 29 73t73 29t73 -29t29 -73t-30 -73t-72 -29t-72 30t-30 72zM588 1126q0 44 29 73t73 29t73 -29t29 -73t-30 -73t-72 -29t-72 30t-30 72z" />
<glyph unicode="&#xa9;" horiz-adv-x="1514" d="M52 684q0 292 207 498t499 206t498 -206t206 -498q0 -294 -206 -500t-498 -206q-294 0 -500 206t-206 500zM166 684q0 -246 173 -419t419 -173q244 0 417 173t173 419q0 244 -173 417t-417 173q-246 0 -419 -173t-173 -417zM360 680q0 170 127 293t299 123 q148 0 286 -118v-174q-72 86 -88 100q-80 76 -200 76q-122 0 -213 -92t-91 -214q0 -126 91 -217t219 -91q108 0 194 76q20 16 88 94v-172q-138 -110 -286 -110q-176 0 -301 125t-125 301z" />
<glyph unicode="&#xaa;" horiz-adv-x="732" d="M56 614v96h588v-96h-588zM82 1110q0 112 74 187t184 75q106 0 178 -78v66h96v-512h-96v64q-72 -78 -180 -78q-112 0 -184 77t-72 199zM180 1108q0 -82 48 -135t122 -53q78 0 126 52t48 136q0 78 -49 128t-125 50q-72 0 -121 -51t-49 -127z" />
<glyph unicode="&#xab;" horiz-adv-x="882" d="M76 436l304 384l98 -74l-244 -310l244 -300l-98 -76zM380 436l306 384l94 -74l-244 -310l244 -300l-94 -76z" />
<glyph unicode="&#xac;" horiz-adv-x="1024" d="M68 404v142h886v-546h-154v404h-732z" />
<glyph unicode="&#xad;" horiz-adv-x="370" d="M0 370v132h370v-132h-370z" />
<glyph unicode="&#xae;" horiz-adv-x="1514" d="M52 684q0 292 207 498t499 206t498 -206t206 -498q0 -294 -206 -500t-498 -206q-294 0 -500 206t-206 500zM166 684q0 -246 173 -419t419 -173q244 0 417 173t173 419q0 244 -173 417t-417 173q-246 0 -419 -173t-173 -417zM578 266v820h138q132 0 202 -60t70 -174 q0 -90 -50 -149t-140 -75l250 -362h-142l-212 310v-310h-116zM694 736h38q136 0 136 118t-148 118h-26v-236z" />
<glyph unicode="&#xaf;" horiz-adv-x="1024" d="M202 1050v124h620v-124h-620z" />
<glyph unicode="&#xb0;" horiz-adv-x="818" d="M102 1096q0 128 91 218t219 90q130 0 217 -88t87 -222q0 -132 -89 -223t-217 -91q-130 0 -219 91t-89 225zM218 1088q0 -76 56 -133t130 -57q84 0 140 55t56 137q0 84 -55 141t-137 57q-80 0 -135 -58t-55 -142z" />
<glyph unicode="&#xb1;" horiz-adv-x="1124" d="M20 742v112h486v502h112v-502h486v-112h-486v-478h-112v478h-486zM22 0v112h1074v-112h-1074z" />
<glyph unicode="&#xb2;" horiz-adv-x="792" d="M84 546l320 352q82 92 113 141t31 93q0 64 -47 107t-115 43q-148 0 -164 -166h-110q10 102 50 156q80 106 220 106q116 0 195 -70t79 -174q0 -70 -35 -129t-153 -185l-160 -176h346v-98h-570z" />
<glyph unicode="&#xb3;" horiz-adv-x="792" d="M110 768h106q22 -140 156 -140q68 0 114 45t46 109q0 146 -180 148v92q168 2 168 136q0 52 -39 88t-95 36q-66 0 -97 -28t-45 -100h-106q18 116 76 170t166 54q104 0 175 -62t71 -156q0 -62 -22 -103t-76 -81q110 -74 110 -198q0 -106 -77 -176t-193 -70q-114 0 -181 62 t-77 174z" />
<glyph unicode="&#xb4;" horiz-adv-x="1024" d="M424 1070l214 294l152 -68l-276 -278z" />
<glyph unicode="&#xb5;" horiz-adv-x="1178" d="M68 -308q0 62 34 194q24 92 24 154v984h182v-678q0 -108 49 -168t137 -60q124 0 228 150v756h184v-756q0 -82 28 -133t72 -51q38 0 67 41t33 99l56 -2q-22 -120 -85 -184t-161 -64q-78 0 -123 44t-69 146q-162 -190 -316 -190q-52 0 -95 20t-107 74q0 -84 26 -176 q38 -134 38 -188q0 -70 -28 -111t-74 -41q-44 0 -72 40t-28 100z" />
<glyph unicode="&#xb6;" d="M84 1014q0 170 103 261t293 91h588l-68 -118h-90v-1450h-130v1450h-216v-1450h-130v874h-30q-140 0 -230 96t-90 246z" />
<glyph unicode="&#xb7;" horiz-adv-x="460" d="M130 436q0 44 29 73t71 29q44 0 73 -29t29 -73q0 -42 -29 -71t-73 -29q-42 0 -71 29t-29 71z" />
<glyph unicode="&#xb8;" horiz-adv-x="1024" d="M372 -374l172 268l136 -56l-206 -262z" />
<glyph unicode="&#xb9;" horiz-adv-x="792" d="M222 1270l56 96h198v-820h-110v724h-144z" />
<glyph unicode="&#xba;" horiz-adv-x="732" d="M74 614v96h588v-96h-588zM86 1102q0 112 82 191t198 79q120 0 202 -78t82 -192t-82 -192t-202 -78q-116 0 -198 79t-82 191zM184 1102q0 -80 52 -132t128 -52q82 0 134 52t52 132q0 82 -52 134t-134 52q-78 0 -129 -53t-51 -133z" />
<glyph unicode="&#xbb;" horiz-adv-x="882" d="M102 136l244 300l-244 310l96 74l306 -384l-306 -376zM408 136l244 300l-244 310l94 74l304 -384l-304 -376z" />
<glyph unicode="&#xbc;" horiz-adv-x="1760" d="M192 1270l58 96h196v-820h-108v724h-146zM442 20l794 1372l80 -42l-794 -1376zM1044 134l550 744v-648h102v-96h-102v-134h-110v134h-440zM1236 230h248v336z" />
<glyph unicode="&#xbd;" horiz-adv-x="1760" d="M192 1270l58 96h196v-820h-108v724h-146zM442 20l794 1372l80 -42l-794 -1376zM1080 0l318 350q146 162 146 238q0 64 -48 107t-116 43q-148 0 -164 -166h-108q10 98 50 152q82 108 220 108q116 0 194 -70t78 -172q0 -70 -36 -131t-150 -185l-162 -178h346v-96h-568z" />
<glyph unicode="&#xbe;" horiz-adv-x="1760" d="M84 768h104q22 -140 158 -140q68 0 114 45t46 109q0 146 -180 148v92q168 2 168 136q0 52 -39 88t-97 36q-66 0 -96 -28t-44 -100h-108q18 116 77 170t167 54q104 0 175 -62t71 -156q0 -62 -22 -103t-76 -81q110 -74 110 -198q0 -106 -77 -176t-193 -70q-114 0 -181 62 t-77 174zM444 20l796 1372l76 -42l-794 -1376zM1044 134l550 744v-648h102v-96h-102v-134h-110v134h-440zM1236 230h248v336z" />
<glyph unicode="&#xbf;" horiz-adv-x="892" d="M116 -12q0 82 35 154t93 112q64 40 212 82q138 38 138 150q0 62 -42 104t-106 42q-132 0 -144 -176h-148q4 144 83 229t211 85q126 0 211 -84t85 -210q0 -104 -59 -170t-189 -108q-134 -42 -160 -60q-4 -4 -10 -8q-60 -50 -60 -140q0 -82 53 -135t133 -53q76 0 127 50 t51 124q0 36 -12 92h150q10 -64 10 -102q0 -130 -97 -218t-237 -88t-234 95t-94 233zM346 960q0 44 29 73t73 29q42 0 71 -29t29 -73q0 -42 -29 -71t-71 -29q-44 0 -73 29t-29 71z" />
<glyph unicode="&#xc0;" horiz-adv-x="1268" d="M14 0l630 1432l614 -1432h-168l-162 388h-584l-164 -388h-166zM326 1714l142 92l262 -266l-88 -66zM408 528h460l-226 548z" />
<glyph unicode="&#xc1;" horiz-adv-x="1268" d="M14 0l630 1432l614 -1432h-168l-162 388h-584l-164 -388h-166zM408 528h460l-226 548zM558 1540l258 266l142 -92l-312 -240z" />
<glyph unicode="&#xc2;" horiz-adv-x="1268" d="M14 0l630 1432l614 -1432h-168l-162 388h-584l-164 -388h-166zM362 1560l286 244l288 -244l-108 -84l-180 156l-180 -156zM408 528h460l-226 548z" />
<glyph unicode="&#xc3;" horiz-adv-x="1268" d="M14 0l630 1432l614 -1432h-168l-162 388h-584l-164 -388h-166zM318 1574q52 84 91 116t95 32q60 0 148 -40q90 -44 114 -44q54 0 100 86l88 -72q-66 -146 -194 -146q-46 0 -140 42q-92 40 -122 40q-28 0 -48 -18t-42 -68zM408 528h460l-226 548z" />
<glyph unicode="&#xc4;" horiz-adv-x="1268" d="M14 0l630 1432l614 -1432h-168l-162 388h-584l-164 -388h-166zM350 1606q0 44 30 74t74 30t75 -30t31 -74t-31 -74t-75 -30t-74 30t-30 74zM408 528h460l-226 548zM740 1606q0 44 30 74t74 30t74 -30t30 -74t-30 -74t-74 -30t-74 30t-30 74z" />
<glyph unicode="&#xc5;" horiz-adv-x="1268" d="M14 0l630 1432l614 -1432h-168l-162 388h-584l-164 -388h-166zM408 528h460l-226 548zM466 1678q0 74 53 126t129 52q74 0 126 -52t52 -126t-52 -127t-126 -53q-76 0 -129 53t-53 127zM560 1676q0 -36 25 -61t61 -25q38 0 63 25t25 61q0 38 -25 63t-63 25q-36 0 -61 -25 t-25 -63z" />
<glyph unicode="&#xc6;" horiz-adv-x="1838" d="M26 0l608 1366h600l60 -142h-550l170 -408h538l62 -142h-540l222 -532h556l60 -142h-714l-160 382h-582l-162 -382h-168zM422 524h456l-226 538z" />
<glyph unicode="&#xc7;" horiz-adv-x="1322" d="M102 678q0 292 210 501t504 209q116 0 207 -30t197 -104v-190q-194 182 -416 182t-385 -167t-163 -397q0 -234 161 -399t391 -165q216 0 412 178v-188q-196 -132 -406 -132q-294 0 -503 206t-209 496zM558 -386l184 280l144 -66l-224 -266z" />
<glyph unicode="&#xc8;" horiz-adv-x="986" d="M178 0v1366h706v-142h-552v-406h538v-142h-538v-534h552v-142h-706zM210 1714l144 92l260 -266l-88 -66z" />
<glyph unicode="&#xc9;" horiz-adv-x="986" d="M178 0v1366h706v-142h-552v-406h538v-142h-538v-534h552v-142h-706zM374 1540l258 266l144 -92l-314 -240z" />
<glyph unicode="&#xca;" horiz-adv-x="986" d="M178 0v1366h706v-142h-552v-406h538v-142h-538v-534h552v-142h-706zM246 1560l284 244l290 -244l-110 -84l-180 156l-178 -156z" />
<glyph unicode="&#xcb;" horiz-adv-x="986" d="M178 0v1366h706v-142h-552v-406h538v-142h-538v-534h552v-142h-706zM236 1606q0 44 30 74t74 30t74 -30t30 -74t-30 -74t-74 -30t-74 30t-30 74zM624 1606q0 44 31 74t75 30t74 -30t30 -74t-30 -74t-74 -30t-75 30t-31 74z" />
<glyph unicode="&#xcc;" horiz-adv-x="506" d="M-58 1714l144 92l260 -266l-88 -66zM176 0v1366h154v-1366h-154z" />
<glyph unicode="&#xcd;" horiz-adv-x="506" d="M176 1540l258 266l144 -92l-314 -240zM178 0v1366h154v-1366h-154z" />
<glyph unicode="&#xce;" horiz-adv-x="506" d="M-32 1560l284 244l288 -244l-108 -84l-180 156l-178 -156zM178 0v1366h154v-1366h-154z" />
<glyph unicode="&#xcf;" horiz-adv-x="506" d="M2 1606q0 44 30 74t74 30t74 -30t30 -74t-30 -74t-74 -30t-74 30t-30 74zM176 0v1366h154v-1366h-154zM294 1606q0 44 31 74t75 30t74 -30t30 -74t-30 -74t-74 -30t-75 30t-31 74z" />
<glyph unicode="&#xd0;" horiz-adv-x="1296" d="M40 626v142h138v598h278q310 0 500 -158q236 -194 236 -528q0 -322 -240 -522q-102 -84 -217 -121t-281 -37h-276v626h-138zM332 142h130q260 0 418 149t158 393t-158 392t-418 148h-130v-456h296v-142h-296v-484z" />
<glyph unicode="&#xd1;" horiz-adv-x="1570" d="M178 0v1424l1064 -1116v1058h152v-1428l-1062 1114v-1052h-154zM468 1574q50 84 91 116t97 32q58 0 146 -40q90 -44 116 -44q54 0 100 86l88 -72q-66 -146 -194 -146q-46 0 -140 42q-92 40 -122 40q-28 0 -48 -18t-42 -68z" />
<glyph unicode="&#xd2;" horiz-adv-x="1626" d="M102 680q0 292 210 500t504 208q292 0 500 -208t208 -498t-208 -498t-500 -208q-296 0 -505 206t-209 498zM256 680q0 -232 164 -397t394 -165t393 165t163 397q0 236 -162 401t-394 165t-395 -165t-163 -401zM502 1714l144 92l260 -266l-88 -66z" />
<glyph unicode="&#xd3;" horiz-adv-x="1626" d="M102 680q0 292 210 500t504 208q292 0 500 -208t208 -498t-208 -498t-500 -208q-296 0 -505 206t-209 498zM256 680q0 -232 164 -397t394 -165t393 165t163 397q0 236 -162 401t-394 165t-395 -165t-163 -401zM736 1540l258 266l142 -92l-312 -240z" />
<glyph unicode="&#xd4;" horiz-adv-x="1626" d="M102 680q0 292 210 500t504 208q292 0 500 -208t208 -498t-208 -498t-500 -208q-296 0 -505 206t-209 498zM256 680q0 -232 164 -397t394 -165t393 165t163 397q0 236 -162 401t-394 165t-395 -165t-163 -401zM526 1560l286 244l288 -244l-108 -84l-180 156l-180 -156z " />
<glyph unicode="&#xd5;" horiz-adv-x="1626" d="M102 680q0 292 210 500t504 208q292 0 500 -208t208 -498t-208 -498t-500 -208q-296 0 -505 206t-209 498zM256 680q0 -232 164 -397t394 -165t393 165t163 397q0 236 -162 401t-394 165t-395 -165t-163 -401zM496 1574q52 84 91 116t95 32q60 0 148 -40q90 -44 114 -44 q54 0 100 86l88 -72q-66 -146 -194 -146q-46 0 -140 42q-92 40 -122 40q-28 0 -48 -18t-42 -68z" />
<glyph unicode="&#xd6;" horiz-adv-x="1626" d="M102 680q0 292 210 500t504 208q292 0 500 -208t208 -498t-208 -498t-500 -208q-296 0 -505 206t-209 498zM256 680q0 -232 164 -397t394 -165t393 165t163 397q0 236 -162 401t-394 165t-395 -165t-163 -401zM514 1606q0 44 30 74t74 30t74 -30t30 -74t-30 -74t-74 -30 t-74 30t-30 74zM904 1606q0 44 30 74t74 30t74 -30t30 -74t-30 -74t-74 -30t-74 30t-30 74z" />
<glyph unicode="&#xd7;" d="M178 378l318 318l-318 318l86 86l318 -318l318 318l86 -86l-318 -318l318 -318l-86 -86l-318 318l-318 -318z" />
<glyph unicode="&#xd8;" horiz-adv-x="1638" d="M102 76l166 164q-154 202 -154 440q0 292 210 500t504 208q230 0 438 -154l166 164l100 -102l-162 -162q166 -210 166 -452q0 -290 -208 -498t-500 -208q-250 0 -458 164l-166 -166zM268 680q0 -190 110 -336l782 790q-160 112 -334 112q-232 0 -395 -165t-163 -401z M482 240q154 -122 344 -122q230 0 393 165t163 397q0 190 -118 352z" />
<glyph unicode="&#xd9;" horiz-adv-x="1328" d="M178 488v878h154v-838q0 -184 44 -262q40 -64 121 -106t169 -42q86 0 166 41t120 107q46 82 46 262v838h152v-878q0 -210 -90 -324q-68 -88 -173 -138t-221 -50q-118 0 -225 50t-173 138q-90 114 -90 324zM354 1714l144 92l260 -266l-88 -66z" />
<glyph unicode="&#xda;" horiz-adv-x="1328" d="M178 488v878h154v-838q0 -184 44 -262q40 -64 121 -106t169 -42q86 0 166 41t120 107q46 82 46 262v838h152v-878q0 -210 -90 -324q-68 -88 -173 -138t-221 -50q-118 0 -225 50t-173 138q-90 114 -90 324zM586 1540l258 266l144 -92l-314 -240z" />
<glyph unicode="&#xdb;" horiz-adv-x="1328" d="M178 488v878h154v-838q0 -184 44 -262q40 -64 121 -106t169 -42q86 0 166 41t120 107q46 82 46 262v838h152v-878q0 -210 -90 -324q-68 -88 -173 -138t-221 -50q-118 0 -225 50t-173 138q-90 114 -90 324zM378 1560l286 244l288 -244l-108 -84l-180 156l-178 -156z" />
<glyph unicode="&#xdc;" horiz-adv-x="1328" d="M178 488v878h154v-838q0 -184 44 -262q40 -64 121 -106t169 -42q86 0 166 41t120 107q46 82 46 262v838h152v-878q0 -210 -90 -324q-68 -88 -173 -138t-221 -50q-118 0 -225 50t-173 138q-90 114 -90 324zM366 1606q0 44 31 74t75 30t74 -30t30 -74t-30 -74t-74 -30 t-75 30t-31 74zM756 1606q0 44 30 74t74 30t74 -30t30 -74t-30 -74t-74 -30t-74 30t-30 74z" />
<glyph unicode="&#xdd;" horiz-adv-x="1080" d="M14 1366h176l348 -610l352 610h180l-456 -778v-588h-154v588zM462 1540l258 266l146 -92l-316 -240z" />
<glyph unicode="&#xde;" horiz-adv-x="934" d="M178 0v1366h154v-192h94q236 0 344 -94q128 -112 128 -292q0 -176 -117 -278t-317 -102h-132v-408h-154zM332 546h122q142 0 218 64t76 182q0 240 -304 240h-112v-486z" />
<glyph unicode="&#xdf;" horiz-adv-x="1072" d="M60 714v136h80v282q0 184 93 285t265 101q152 0 251 -97t99 -245q0 -180 -152 -264q134 -52 213 -170t79 -266q0 -206 -147 -347t-373 -153v142q168 12 269 112t101 252q0 88 -43 166t-113 120q-82 46 -214 64v130q112 6 171 63t59 159q0 86 -58 143t-146 57 q-64 0 -113 -28t-69 -74q-28 -56 -28 -214v-1068h-144v714h-80z" />
<glyph unicode="&#xe0;" horiz-adv-x="1072" d="M86 426q0 194 115 319t293 125q174 0 294 -140v120h146v-850h-146v118q-116 -142 -294 -142q-176 0 -292 128t-116 322zM230 1296l150 68l216 -294l-90 -52zM236 432q0 -142 78 -233t200 -91q128 0 206 90t78 232q0 136 -80 222t-206 86q-116 0 -196 -88t-80 -218z" />
<glyph unicode="&#xe1;" horiz-adv-x="1072" d="M86 426q0 194 115 319t293 125q174 0 294 -140v120h146v-850h-146v118q-116 -142 -294 -142q-176 0 -292 128t-116 322zM236 432q0 -142 78 -233t200 -91q128 0 206 90t78 232q0 136 -80 222t-206 86q-116 0 -196 -88t-80 -218zM448 1070l216 294l152 -68l-278 -278z" />
<glyph unicode="&#xe2;" horiz-adv-x="1072" d="M86 426q0 194 115 319t293 125q174 0 294 -140v120h146v-850h-146v118q-116 -142 -294 -142q-176 0 -292 128t-116 322zM226 1098l282 242l284 -242l-106 -80l-178 154l-180 -154zM236 432q0 -142 78 -233t200 -91q128 0 206 90t78 232q0 136 -80 222t-206 86 q-116 0 -196 -88t-80 -218z" />
<glyph unicode="&#xe3;" horiz-adv-x="1072" d="M86 426q0 194 115 319t293 125q174 0 294 -140v120h146v-850h-146v118q-116 -142 -294 -142q-176 0 -292 128t-116 322zM192 1088q50 82 89 112t95 30q58 0 146 -40q94 -42 116 -42q56 0 102 86l86 -68q-66 -146 -194 -146q-42 0 -138 42q-96 40 -124 40q-54 0 -90 -84z M236 432q0 -142 78 -233t200 -91q128 0 206 90t78 232q0 136 -80 222t-206 86q-116 0 -196 -88t-80 -218z" />
<glyph unicode="&#xe4;" horiz-adv-x="1072" d="M86 426q0 194 115 319t293 125q174 0 294 -140v120h146v-850h-146v118q-116 -142 -294 -142q-176 0 -292 128t-116 322zM236 432q0 -142 78 -233t200 -91q128 0 206 90t78 232q0 136 -80 222t-206 86q-116 0 -196 -88t-80 -218zM242 1126q0 44 29 73t73 29t73 -29t29 -73 t-30 -73t-72 -29t-72 30t-30 72zM598 1126q0 44 29 73t73 29t73 -29t29 -73t-30 -73t-72 -29t-72 30t-30 72z" />
<glyph unicode="&#xe5;" horiz-adv-x="1072" d="M86 426q0 194 115 319t293 125q174 0 294 -140v120h146v-850h-146v118q-116 -142 -294 -142q-176 0 -292 128t-116 322zM236 432q0 -142 78 -233t200 -91q128 0 206 90t78 232q0 136 -80 222t-206 86q-116 0 -196 -88t-80 -218zM332 1194q0 72 52 124t124 52 q74 0 125 -51t51 -125q0 -72 -52 -124t-124 -52t-124 52t-52 124zM422 1196q0 -36 25 -61t61 -25t61 25t25 61q0 34 -25 59t-61 25t-61 -24t-25 -60z" />
<glyph unicode="&#xe6;" horiz-adv-x="1580" d="M84 250q0 128 98 206t256 78q128 0 242 -74q-2 144 -61 212t-181 68q-98 0 -262 -52v136q166 46 270 46q112 0 195 -45t121 -127q48 80 136 126t192 46q190 0 299 -127t107 -347h-666q10 -132 84 -210t190 -78q152 0 258 178l122 -70q-74 -126 -166 -183t-216 -57 q-220 0 -334 170q-54 -90 -130 -130t-190 -40q-164 0 -264 75t-100 199zM228 254q0 -64 59 -105t157 -41q102 0 165 43t63 111q0 58 -63 99t-155 41q-104 0 -165 -40t-61 -108zM842 520h498q-18 102 -84 161t-162 59q-204 0 -252 -220z" />
<glyph unicode="&#xe7;" horiz-adv-x="890" d="M84 420q0 190 130 319t324 129q140 0 262 -80v-192q-72 78 -131 109t-137 31q-128 0 -213 -90t-85 -224q0 -132 85 -223t207 -91q84 0 145 33t135 115v-192q-138 -88 -272 -88q-190 0 -320 128t-130 316zM306 -374l172 268l134 -56l-204 -262z" />
<glyph unicode="&#xe8;" horiz-adv-x="984" d="M84 426q0 194 116 318t298 124t293 -122t111 -322v-28h-664q6 -130 80 -209t190 -79q84 0 142 40t120 138l122 -68q-138 -242 -392 -242q-184 0 -300 125t-116 325zM212 1296l152 68l216 -294l-90 -52zM248 518h500q-20 100 -88 160t-162 60q-92 0 -164 -63t-86 -157z " />
<glyph unicode="&#xe9;" horiz-adv-x="984" d="M84 426q0 194 116 318t298 124t293 -122t111 -322v-28h-664q6 -130 80 -209t190 -79q84 0 142 40t120 138l122 -68q-138 -242 -392 -242q-184 0 -300 125t-116 325zM248 518h500q-20 100 -88 160t-162 60q-92 0 -164 -63t-86 -157zM404 1070l214 294l152 -68l-276 -278z " />
<glyph unicode="&#xea;" horiz-adv-x="984" d="M84 426q0 194 116 318t298 124t293 -122t111 -322v-28h-664q6 -130 80 -209t190 -79q84 0 142 40t120 138l122 -68q-138 -242 -392 -242q-184 0 -300 125t-116 325zM208 1098l284 242l284 -242l-106 -80l-178 154l-180 -154zM248 518h500q-20 100 -88 160t-162 60 q-92 0 -164 -63t-86 -157z" />
<glyph unicode="&#xeb;" horiz-adv-x="984" d="M84 426q0 194 116 318t298 124t293 -122t111 -322v-28h-664q6 -130 80 -209t190 -79q84 0 142 40t120 138l122 -68q-138 -242 -392 -242q-184 0 -300 125t-116 325zM210 1126q0 44 30 73t74 29t73 -29t29 -73t-30 -73t-72 -29t-73 30t-31 72zM248 518h500 q-20 100 -88 160t-162 60q-92 0 -164 -63t-86 -157zM568 1126q0 44 29 73t73 29t73 -29t29 -73t-30 -73t-72 -29t-72 30t-30 72z" />
<glyph unicode="&#xec;" horiz-adv-x="468" d="M-46 1296l152 68l216 -294l-90 -52zM162 0v850h146v-850h-146z" />
<glyph unicode="&#xed;" horiz-adv-x="468" d="M148 1070l214 294l152 -68l-276 -278zM162 0v850h146v-850h-146z" />
<glyph unicode="&#xee;" horiz-adv-x="468" d="M-50 1098l284 242l284 -242l-106 -80l-178 154l-180 -154zM162 0v850h146v-850h-146z" />
<glyph unicode="&#xef;" horiz-adv-x="468" d="M-12 1126q0 44 29 73t73 29t73 -29t29 -73t-30 -73t-72 -29t-72 30t-30 72zM162 0v850h146v-850h-146zM276 1126q0 44 29 73t73 29t74 -29t30 -73q0 -42 -31 -72t-73 -30t-72 30t-30 72z" />
<glyph unicode="&#xf0;" horiz-adv-x="1068" d="M84 422q0 188 130 318t318 130q138 0 232 -66q-54 134 -120 224t-190 196l-294 -148l-46 90l242 126q-118 76 -256 118l58 88q170 -46 314 -138l292 150l48 -90l-246 -126q418 -364 418 -852q0 -204 -127 -335t-325 -131q-190 0 -319 128t-129 318zM234 422 q0 -136 84 -225t212 -89q132 0 218 89t86 225q0 138 -85 227t-219 89q-128 0 -212 -90t-84 -226z" />
<glyph unicode="&#xf1;" horiz-adv-x="960" d="M140 0v850h144v-102q56 68 111 95t135 27q166 0 244 -116q48 -82 48 -228v-526h-146v502q0 132 -40 185t-140 53q-112 0 -162 -75t-50 -241v-424h-144zM164 1088q50 82 89 112t95 30q58 0 146 -40q94 -42 116 -42q54 0 100 86l86 -68q-66 -146 -192 -146q-44 0 -140 42 q-96 40 -122 40q-54 0 -90 -84z" />
<glyph unicode="&#xf2;" horiz-adv-x="1066" d="M84 422q0 186 130 316t318 130q190 0 321 -129t131 -317t-131 -317t-321 -129q-188 0 -318 130t-130 316zM234 422q0 -136 84 -225t212 -89q132 0 218 89t86 225q0 138 -85 226t-219 88q-128 0 -212 -89t-84 -225zM254 1296l152 68l214 -294l-90 -52z" />
<glyph unicode="&#xf3;" horiz-adv-x="1066" d="M84 422q0 186 130 316t318 130q190 0 321 -129t131 -317t-131 -317t-321 -129q-188 0 -318 130t-130 316zM234 422q0 -136 84 -225t212 -89q132 0 218 89t86 225q0 138 -85 226t-219 88q-128 0 -212 -89t-84 -225zM444 1070l216 294l152 -68l-278 -278z" />
<glyph unicode="&#xf4;" horiz-adv-x="1066" d="M84 422q0 186 130 316t318 130q190 0 321 -129t131 -317t-131 -317t-321 -129q-188 0 -318 130t-130 316zM234 422q0 -136 84 -225t212 -89q132 0 218 89t86 225q0 138 -85 226t-219 88q-128 0 -212 -89t-84 -225zM250 1098l282 242l286 -242l-108 -80l-178 154 l-180 -154z" />
<glyph unicode="&#xf5;" horiz-adv-x="1066" d="M84 422q0 186 130 316t318 130q190 0 321 -129t131 -317t-131 -317t-321 -129q-188 0 -318 130t-130 316zM218 1088q50 82 89 112t95 30t144 -40q94 -42 118 -42q54 0 100 86l86 -68q-66 -146 -192 -146q-44 0 -140 42q-96 40 -122 40q-54 0 -90 -84zM234 422 q0 -136 84 -225t212 -89q132 0 218 89t86 225q0 138 -85 226t-219 88q-128 0 -212 -89t-84 -225z" />
<glyph unicode="&#xf6;" horiz-adv-x="1066" d="M84 422q0 186 130 316t318 130q190 0 321 -129t131 -317t-131 -317t-321 -129q-188 0 -318 130t-130 316zM234 422q0 -136 84 -225t212 -89q132 0 218 89t86 225q0 138 -85 226t-219 88q-128 0 -212 -89t-84 -225zM252 1126q0 44 29 73t73 29t73 -29t29 -73t-30 -73 t-72 -29t-72 30t-30 72zM608 1126q0 44 29 73t73 29t74 -29t30 -73q0 -42 -31 -72t-73 -30t-72 30t-30 72z" />
<glyph unicode="&#xf7;" horiz-adv-x="1124" d="M20 478v112h1078v-112h-1078zM432 118q0 52 38 90t90 38t89 -38t37 -90t-37 -89t-89 -37t-90 37t-38 89zM432 936q0 52 38 89t90 37t89 -37t37 -89t-37 -90t-89 -38t-90 38t-38 90z" />
<glyph unicode="&#xf8;" horiz-adv-x="1144" d="M84 30l126 128q-84 118 -84 264q0 186 131 316t317 130q146 0 268 -84l124 126l92 -90l-124 -126q90 -120 90 -272q0 -188 -130 -317t-320 -129q-144 0 -268 88l-128 -126zM276 420q0 -78 40 -164l426 434q-84 46 -168 46q-128 0 -213 -90t-85 -226zM404 158 q84 -50 168 -50q132 0 217 89t85 225q0 92 -42 176z" />
<glyph unicode="&#xf9;" horiz-adv-x="952" d="M140 338v512h144v-496q0 -130 46 -188t148 -58q100 0 145 58t45 188v496h146v-512q0 -170 -78 -256q-94 -106 -258 -106q-166 0 -260 106q-78 86 -78 256zM196 1296l152 68l216 -294l-90 -52z" />
<glyph unicode="&#xfa;" horiz-adv-x="952" d="M140 338v512h144v-496q0 -130 46 -188t148 -58q100 0 145 58t45 188v496h146v-512q0 -170 -78 -256q-94 -106 -258 -106q-166 0 -260 106q-78 86 -78 256zM390 1070l214 294l152 -68l-276 -278z" />
<glyph unicode="&#xfb;" horiz-adv-x="952" d="M140 338v512h144v-496q0 -130 46 -188t148 -58q100 0 145 58t45 188v496h146v-512q0 -170 -78 -256q-94 -106 -258 -106q-166 0 -260 106q-78 86 -78 256zM192 1098l284 242l284 -242l-106 -80l-178 154l-182 -154z" />
<glyph unicode="&#xfc;" horiz-adv-x="952" d="M140 338v512h144v-496q0 -130 46 -188t148 -58q100 0 145 58t45 188v496h146v-512q0 -170 -78 -256q-94 -106 -258 -106q-166 0 -260 106q-78 86 -78 256zM194 1126q0 44 29 73t73 29t74 -29t30 -73q0 -42 -31 -72t-73 -30t-72 30t-30 72zM550 1126q0 44 30 73t74 29 t73 -29t29 -73t-30 -73t-72 -29t-73 30t-31 72z" />
<glyph unicode="&#xfd;" horiz-adv-x="942" d="M16 850h168l302 -608l274 608h166l-630 -1330h-162l274 560zM382 1070l216 294l152 -68l-276 -278z" />
<glyph unicode="&#xfe;" horiz-adv-x="1072" d="M140 -480v1972h144v-762q116 138 298 138q178 0 292 -129t114 -329q0 -186 -116 -310t-292 -124q-174 0 -296 142v-598h-144zM276 416q0 -134 81 -221t205 -87q116 0 196 88t80 218q0 142 -78 232t-200 90q-126 0 -205 -89t-79 -231z" />
<glyph unicode="&#xff;" horiz-adv-x="942" d="M16 850h168l302 -608l274 608h166l-630 -1330h-162l274 560zM190 1126q0 44 29 73t73 29t74 -29t30 -73q0 -42 -31 -72t-73 -30t-72 30t-30 72zM546 1126q0 44 30 73t74 29t73 -29t29 -73t-30 -73t-72 -29t-73 30t-31 72z" />
<glyph unicode="&#x152;" horiz-adv-x="2162" d="M102 680q0 292 206 500t496 208q344 0 558 -290v268h698v-142h-544v-406h530v-142h-530v-534h544v-142h-698v262q-208 -286 -554 -286q-286 0 -496 209t-210 495zM256 686q0 -236 161 -402t389 -166q230 0 393 165t163 395q0 236 -163 402t-395 166q-220 0 -384 -167 t-164 -393z" />
<glyph unicode="&#x153;" horiz-adv-x="1742" d="M84 420q0 188 132 318t324 130q114 0 212 -54t152 -146q48 94 139 147t207 53q184 0 295 -121t111 -319v-30h-668q6 -126 82 -208t190 -82q166 0 262 180l122 -70q-138 -242 -388 -242q-114 0 -210 55t-142 147q-60 -96 -159 -149t-217 -53q-184 0 -314 130t-130 314z M234 420q0 -136 84 -224t218 -88q126 0 211 88t85 222q0 138 -84 228t-212 90q-134 0 -218 -88t-84 -228zM1000 520h504q-44 216 -252 216q-202 0 -252 -216z" />
<glyph unicode="&#x178;" horiz-adv-x="1080" d="M14 1366h176l348 -610l352 610h180l-456 -778v-588h-154v588zM242 1606q0 44 30 74t74 30t74 -30t30 -74t-30 -74t-74 -30t-74 30t-30 74zM630 1606q0 44 31 74t75 30t74 -30t30 -74t-30 -74t-74 -30t-75 30t-31 74z" />
<glyph unicode="&#x2c6;" horiz-adv-x="1024" d="M230 1098l282 242l284 -242l-106 -80l-178 154l-180 -154z" />
<glyph unicode="&#x2dc;" horiz-adv-x="1024" d="M196 1088q50 82 89 112t95 30q58 0 146 -40q94 -42 118 -42q54 0 100 86l86 -68q-66 -146 -194 -146q-42 0 -138 42q-96 40 -124 40q-54 0 -90 -84z" />
<glyph unicode="&#x3bc;" horiz-adv-x="1178" d="M68 -308q0 62 34 194q24 92 24 154v984h182v-678q0 -108 49 -168t137 -60q124 0 228 150v756h184v-756q0 -82 28 -133t72 -51q38 0 67 41t33 99l56 -2q-22 -120 -85 -184t-161 -64q-78 0 -123 44t-69 146q-162 -190 -316 -190q-52 0 -95 20t-107 74q0 -84 26 -176 q38 -134 38 -188q0 -70 -28 -111t-74 -41q-44 0 -72 40t-28 100z" />
<glyph unicode="&#x2000;" horiz-adv-x="928" />
<glyph unicode="&#x2001;" horiz-adv-x="1856" />
<glyph unicode="&#x2002;" horiz-adv-x="928" />
<glyph unicode="&#x2003;" horiz-adv-x="1856" />
<glyph unicode="&#x2004;" horiz-adv-x="618" />
<glyph unicode="&#x2005;" horiz-adv-x="464" />
<glyph unicode="&#x2006;" horiz-adv-x="308" />
<glyph unicode="&#x2007;" horiz-adv-x="308" />
<glyph unicode="&#x2008;" horiz-adv-x="232" />
<glyph unicode="&#x2009;" horiz-adv-x="370" />
<glyph unicode="&#x200a;" horiz-adv-x="102" />
<glyph unicode="&#x2010;" horiz-adv-x="370" d="M0 370v132h370v-132h-370z" />
<glyph unicode="&#x2011;" horiz-adv-x="370" d="M0 370v132h370v-132h-370z" />
<glyph unicode="&#x2012;" horiz-adv-x="370" d="M0 370v132h370v-132h-370z" />
<glyph unicode="&#x2013;" d="M240 370v132h682v-132h-682z" />
<glyph unicode="&#x2014;" horiz-adv-x="1114" d="M0 370v132h1114v-132h-1114z" />
<glyph unicode="&#x2018;" horiz-adv-x="534" d="M116 972l206 462l98 -40l-170 -470z" />
<glyph unicode="&#x2019;" horiz-adv-x="516" d="M94 962l170 472l134 -50l-206 -460z" />
<glyph unicode="&#x201a;" horiz-adv-x="516" d="M94 -266l170 470l134 -48l-206 -462z" />
<glyph unicode="&#x201c;" horiz-adv-x="834" d="M116 972l206 462l98 -40l-170 -470zM416 972l206 462l98 -40l-170 -470z" />
<glyph unicode="&#x201d;" horiz-adv-x="834" d="M116 962l170 472l134 -50l-204 -460zM416 962l170 472l134 -50l-206 -460z" />
<glyph unicode="&#x201e;" horiz-adv-x="834" d="M116 -272l170 472l134 -48l-204 -464zM416 -272l170 472l134 -48l-206 -464z" />
<glyph unicode="&#x2022;" horiz-adv-x="1366" d="M402 694q0 118 83 200t203 82q116 0 198 -83t82 -199q0 -118 -82 -201t-198 -83q-120 0 -203 83t-83 201z" />
<glyph unicode="&#x2026;" horiz-adv-x="1526" d="M154 80q0 42 29 71t71 29t71 -29t29 -71t-29 -71t-71 -29t-71 29t-29 71zM664 80q0 42 29 71t71 29t71 -29t29 -71t-29 -71t-71 -29t-71 29t-29 71zM1172 80q0 42 29 71t71 29t71 -29t29 -71t-29 -71t-71 -29t-71 29t-29 71z" />
<glyph unicode="&#x202f;" horiz-adv-x="370" />
<glyph unicode="&#x2039;" horiz-adv-x="576" d="M76 436l304 384l98 -74l-244 -310l244 -300l-98 -76z" />
<glyph unicode="&#x203a;" horiz-adv-x="576" d="M102 136l244 300l-244 310l96 74l306 -384l-308 -376z" />
<glyph unicode="&#x205f;" horiz-adv-x="464" />
<glyph unicode="&#x2122;" horiz-adv-x="1476" d="M8 1274v92h472v-92h-190v-686h-98v686h-184zM552 588l134 830l292 -648l302 648l124 -830h-96l-68 528l-262 -568l-256 568l-74 -528h-96z" />
<glyph unicode="&#xe000;" horiz-adv-x="850" d="M0 850h850v-850h-850v850z" />
<glyph unicode="&#xfb01;" horiz-adv-x="914" d="M60 714v136h80v362q0 306 248 306q48 0 112 -18v-148q-58 20 -98 20q-70 0 -94 -40t-24 -154v-328h216v-136h-216v-714h-144v714h-80zM598 1172q0 44 30 74t74 30t74 -30t30 -74t-30 -74t-74 -30t-74 30t-30 74zM630 0v850h146v-850h-146z" />
<glyph unicode="&#xfb02;" horiz-adv-x="914" d="M60 714v136h80v362q0 306 248 306q48 0 112 -18v-148q-58 20 -98 20q-70 0 -94 -40t-24 -154v-328h216v-136h-216v-714h-144v714h-80zM630 0v1492h146v-1492h-146z" />
<glyph unicode="&#xfb03;" horiz-adv-x="1400" d="M1084 1172q0 44 30 74t74 30t75 -30t31 -74t-31 -74t-75 -30t-74 30t-30 74zM1116 0v850h144v-850h-144zM548 714v136h80v362q0 306 248 306q48 0 112 -18v-148q-58 20 -98 20q-70 0 -94 -40t-24 -154v-328h216v-136h-216v-714h-144v714h-80zM60 714v136h80v362 q0 306 248 306q48 0 112 -18v-148q-58 20 -98 20q-70 0 -94 -40t-24 -154v-328h216v-136h-216v-714h-144v714h-80z" />
<glyph unicode="&#xfb04;" horiz-adv-x="1398" d="M1116 0v1492h144v-1492h-144zM548 714v136h80v362q0 306 248 306q48 0 112 -18v-148q-58 20 -98 20q-70 0 -94 -40t-24 -154v-328h216v-136h-216v-714h-144v714h-80zM60 714v136h80v362q0 306 248 306q48 0 112 -18v-148q-58 20 -98 20q-70 0 -94 -40t-24 -154v-328h216 v-136h-216v-714h-144v714h-80z" />
</font>
</defs>
</svg>
