<?xml version="1.0" standalone="no"?>
<!DOCTYPE svg PUBLIC "-//W3C//DTD SVG 1.1//EN" "http://www.w3.org/Graphics/SVG/1.1/DTD/svg11.dtd" >
<svg xmlns="http://www.w3.org/2000/svg">
<metadata>
This is a custom SVG webfont generated by Font Squirrel.
Copyright   : Copyright URW Software Copyright 1992 by URW
</metadata>
<defs>
<font id="FuturTLigLight" horiz-adv-x="1120" >
<font-face units-per-em="2048" ascent="1638" descent="-410" />
<missing-glyph horiz-adv-x="512" />
<glyph unicode=" "  horiz-adv-x="512" />
<glyph unicode="&#x09;" horiz-adv-x="512" />
<glyph unicode="&#xa0;" horiz-adv-x="512" />
<glyph unicode="!" horiz-adv-x="530" d="M190 62q0 30 22 52t54 22q30 0 52 -22t22 -52q0 -32 -22 -54t-52 -22t-53 23t-23 53zM222 244v1122h88v-1122h-88z" />
<glyph unicode="&#x22;" horiz-adv-x="736" d="M216 1366h94l-18 -466h-62zM428 1366h92l-14 -466h-64z" />
<glyph unicode="#" horiz-adv-x="1228" d="M92 450v82h252l42 328h-242v82h252l50 430l88 -12l-50 -418h328l52 430l88 -12l-50 -418h234v-82h-244l-40 -328h234v-82h-244l-58 -456l-86 12l56 444h-332l-58 -456l-86 12l56 444h-242zM432 532h330l38 328h-326z" />
<glyph unicode="$" d="M150 274l76 36q42 -86 71 -125t77 -71q80 -48 174 -48v626q-22 10 -32 16q-172 84 -229 152t-57 186q0 136 89 228t229 102v190h80v-192q188 -32 278 -190l-66 -54q-50 76 -98 113t-114 47v-540q156 -78 224 -124q120 -94 120 -250q0 -140 -98 -250t-246 -136v-210h-80 v204q-150 6 -244 75t-154 215zM320 1038q0 -82 46 -133t182 -119v508q-98 -8 -163 -80t-65 -176zM628 74q114 26 184 113t70 199q0 82 -57 142t-197 126v-580z" />
<glyph unicode="%" horiz-adv-x="1238" d="M68 1108q0 116 79 193t197 77t196 -77t78 -193q0 -112 -79 -189t-195 -77t-196 77t-80 189zM150 1112q0 -80 57 -137t137 -57t136 57t56 137t-57 136t-137 56t-136 -56t-56 -136zM182 2l810 1394l58 -30l-810 -1396zM618 254q0 116 79 193t197 77t197 -77t79 -193 q0 -112 -80 -189t-196 -77t-196 77t-80 189zM698 256q0 -80 57 -137t137 -57q82 0 139 57t57 137t-57 136t-139 56q-80 0 -137 -56t-57 -136z" />
<glyph unicode="&#x26;" horiz-adv-x="1288" d="M130 332q0 134 96 249t310 243q-28 40 -64 104q-44 74 -58 111t-14 89q0 108 78 185t188 77q106 0 177 -73t71 -181q0 -92 -52 -162t-200 -176l334 -450q68 66 160 182l78 -36q-114 -146 -188 -218l208 -278h-116l-162 218q-156 -130 -269 -186t-223 -56q-148 0 -251 104 t-103 254zM220 336q0 -118 78 -199t190 -81q174 0 440 230l-342 468q-10 -8 -15 -11t-12 -7t-34 -21t-69 -43q-236 -150 -236 -336zM488 1118q0 -68 60 -156l34 -51q18 -27 28 -43q8 6 28 20q116 84 152 132t36 118t-48 119t-116 49q-72 0 -123 -55t-51 -133z" />
<glyph unicode="'" horiz-adv-x="500" d="M198 1366h94l-16 -466h-64z" />
<glyph unicode="(" horiz-adv-x="550" d="M178 584q0 256 41 521t103 417l68 -48q-128 -442 -128 -890q0 -452 128 -894l-68 -46q-62 152 -103 418t-41 522z" />
<glyph unicode=")" horiz-adv-x="550" d="M164 -310q126 438 126 894q0 452 -126 890l68 48q62 -152 102 -416t40 -522q0 -260 -40 -523t-102 -417z" />
<glyph unicode="*" d="M238 1226l26 84l258 -90l-6 272h88l-6 -272l256 90l28 -84l-262 -78l166 -216l-72 -52l-154 226l-154 -226l-72 52l166 216z" />
<glyph unicode="+" d="M64 656v82h454v448h82v-448h454v-82h-454v-450h-82v450h-454z" />
<glyph unicode="," horiz-adv-x="414" d="M78 -280l122 414l82 -26l-150 -410z" />
<glyph unicode="-" horiz-adv-x="344" d="M0 382v82h344v-82h-344z" />
<glyph unicode="." horiz-adv-x="414" d="M134 62q0 30 21 52t53 22q30 0 52 -22t22 -52q0 -32 -22 -54t-52 -22t-52 23t-22 53z" />
<glyph unicode="/" horiz-adv-x="1114" d="M14 -324l1038 1846l64 -34l-1036 -1844z" />
<glyph unicode="0" d="M64 682q0 286 147 493t349 207q208 0 351 -202t143 -498q0 -290 -145 -495t-351 -205q-202 0 -348 207t-146 493zM154 672q0 -254 119 -430t291 -176q166 0 284 182t118 436t-118 434t-286 180q-172 0 -290 -181t-118 -445z" />
<glyph unicode="1" d="M344 1284l38 82h264v-1366h-88v1284h-214z" />
<glyph unicode="2" d="M124 0l524 578q130 140 181 233t51 179q0 130 -92 219t-226 89q-86 0 -161 -39t-115 -105q-36 -62 -42 -176h-90q4 88 17 136t45 94q54 78 150 126t198 48q172 0 289 -114t117 -282q0 -144 -118 -302q-40 -52 -178 -202l-356 -400h646v-82h-840z" />
<glyph unicode="3" d="M156 336h86q12 -98 44 -146q36 -54 106 -89t140 -35q128 0 220 92t92 222q0 128 -82 204t-226 84v82q134 8 212 84t78 194t-75 194t-191 76q-238 0 -270 -258h-84q38 342 354 342q148 0 252 -103t104 -251q0 -212 -208 -316q226 -92 226 -342q0 -162 -117 -275t-283 -113 q-164 0 -269 99t-109 255z" />
<glyph unicode="4" d="M20 260l824 1152v-1070h192v-82h-192v-260h-88v260h-736zM184 342h572v802z" />
<glyph unicode="5" d="M62 206l80 34q122 -174 330 -174q170 0 283 113t113 283q0 160 -114 271t-282 111q-102 0 -208 -58l178 580h518v-82h-456l-112 -368q52 12 100 12q198 0 332 -135t134 -333q0 -204 -141 -341t-349 -137q-264 0 -406 224z" />
<glyph unicode="6" d="M74 456q0 164 88 286l452 640l70 -50l-302 -430q98 36 184 36q196 0 336 -141t140 -339q0 -196 -142 -336t-342 -140t-342 139t-142 335zM164 458q0 -164 116 -278t280 -114t279 114t115 278q0 166 -115 281t-279 115t-280 -115t-116 -281z" />
<glyph unicode="7" d="M72 36l882 1248h-830v82h990l-974 -1380z" />
<glyph unicode="8" d="M164 368q0 226 222 342q-190 110 -190 312q0 152 106 256t260 104t260 -102t106 -252q0 -98 -52 -183t-144 -135q222 -108 222 -338q0 -166 -113 -278t-283 -112t-282 110t-112 276zM252 368q0 -126 90 -214t216 -88t215 88t89 214q0 124 -89 213t-215 89t-216 -89 t-90 -213zM286 1024q0 -116 81 -196t195 -80t194 80t80 196q0 114 -80 194t-194 80t-195 -80t-81 -194z" />
<glyph unicode="9" d="M78 908q0 196 142 335t344 139t342 -138t140 -336q0 -160 -88 -284l-452 -640l-70 52l302 428q-100 -34 -182 -34q-196 0 -337 141t-141 337zM166 906q0 -164 116 -279t282 -115q164 0 279 115t115 279t-115 278t-279 114q-166 0 -282 -114t-116 -278z" />
<glyph unicode=":" horiz-adv-x="414" d="M134 62q0 30 21 52t53 22q30 0 52 -22t22 -52q0 -32 -22 -54t-52 -22t-52 23t-22 53zM134 780q0 30 21 52t53 22q30 0 52 -22t22 -52q0 -32 -22 -54t-52 -22t-52 23t-22 53z" />
<glyph unicode=";" horiz-adv-x="414" d="M78 -280l122 414l82 -26l-150 -410zM142 780q0 30 22 52t54 22q30 0 51 -22t21 -52q0 -32 -21 -54t-51 -22q-34 0 -55 22t-21 54z" />
<glyph unicode="&#x3c;" horiz-adv-x="1024" d="M68 646v82l886 394v-90l-790 -346l790 -348v-90z" />
<glyph unicode="=" d="M64 546v82h990v-82h-990zM64 764v82h990v-82h-990z" />
<glyph unicode="&#x3e;" horiz-adv-x="1024" d="M70 248v90l790 348l-790 346v90l886 -394v-82z" />
<glyph unicode="?" horiz-adv-x="952" d="M150 1074q0 130 94 217t232 87q144 0 234 -93t90 -241q0 -84 -37 -158t-97 -112q-52 -32 -122 -50l-34 -8l-32 -10l-34 -8q-166 -44 -166 -188q0 -88 57 -145t145 -57q174 0 192 218h84v-20q0 -124 -78 -201t-202 -77t-205 79t-81 201q0 206 258 276q100 26 131 39t59 37 q74 58 74 178q0 112 -69 185t-175 73q-96 0 -165 -68t-69 -164q0 -44 12 -104h-84q-12 68 -12 114zM398 62q0 30 22 52t54 22q30 0 51 -22t21 -52q0 -32 -21 -54t-51 -22t-53 23t-23 53z" />
<glyph unicode="@" horiz-adv-x="1572" d="M106 682q0 296 206 499t506 203q280 0 465 -174t185 -434q0 -182 -97 -317t-227 -135q-56 0 -96 35t-40 85v20q-68 -82 -127 -113t-141 -31q-142 0 -232 96t-90 246q0 166 105 276t261 110q88 0 150 -36t122 -124l20 144h82l-56 -458l-16 -108q0 -32 21 -51t57 -19 q92 0 161 114t69 266q0 234 -163 384t-417 150q-264 0 -447 -183t-183 -447q0 -170 84 -316t226 -228q140 -82 354 -82q222 0 448 112l30 -70q-228 -114 -478 -114q-328 0 -535 196t-207 504zM502 662q0 -116 69 -191t177 -75q118 0 205 96t87 230q0 110 -71 180t-181 70 q-122 0 -204 -89t-82 -221z" />
<glyph unicode="A" horiz-adv-x="1196" d="M26 0l574 1406l570 -1406h-100l-182 448h-580l-184 -448h-98zM340 530h516l-256 648z" />
<glyph unicode="B" horiz-adv-x="1090" d="M184 0v1366h296q176 0 276 -93t100 -257q0 -106 -36 -170t-124 -122q284 -80 284 -346q0 -170 -117 -274t-307 -104h-372zM272 82h230q122 0 181 16t113 66q94 84 94 214q0 84 -40 152t-108 96q-96 40 -256 40h-214v-584zM272 748h174q96 0 141 10t87 46q90 70 90 212 q0 268 -318 268h-174v-536z" />
<glyph unicode="C" horiz-adv-x="1386" d="M108 680q0 290 211 497t503 207q246 0 454 -176v-122q-190 214 -458 214q-248 0 -433 -184t-185 -432q0 -254 183 -438t433 -184q268 0 460 204v-118q-218 -170 -454 -170q-290 0 -502 209t-212 493z" />
<glyph unicode="D" horiz-adv-x="1262" d="M184 0v1366h270q310 0 500 -188q202 -198 202 -498q0 -294 -202 -490q-190 -190 -500 -190h-270zM272 82h180q266 0 438 169t172 431q0 266 -171 434t-439 168h-180v-1202z" />
<glyph unicode="E" horiz-adv-x="948" d="M184 0v1366h654v-82h-566v-496h554v-82h-554v-624h566v-82h-654z" />
<glyph unicode="F" horiz-adv-x="830" d="M184 0v1366h552v-82h-464v-496h450v-82h-450v-706h-88z" />
<glyph unicode="G" horiz-adv-x="1578" d="M108 678q0 292 210 499t504 207q178 0 318 -75t274 -245l-72 -54q-82 108 -132 146q-162 144 -392 144q-252 0 -436 -185t-184 -439q0 -252 182 -433t434 -181q148 0 289 73t209 189q56 94 62 250h-480v82h576q0 -138 -18 -220t-66 -158q-84 -136 -242 -218t-336 -82 q-284 0 -492 207t-208 493z" />
<glyph unicode="H" horiz-adv-x="1374" d="M184 0v1366h88v-580h830v580h88v-1366h-88v704h-830v-704h-88z" />
<glyph unicode="I" horiz-adv-x="456" d="M184 0v1366h88v-1366h-88z" />
<glyph unicode="J" horiz-adv-x="542" d="M-108 -138l64 50q58 -112 170 -112q144 0 144 204v1362h88v-1362q0 -288 -236 -288q-154 0 -230 146z" />
<glyph unicode="K" horiz-adv-x="1102" d="M184 0v1366h88v-634l642 634h120l-668 -660l712 -706h-132l-640 650l-34 -34v-616h-88z" />
<glyph unicode="L" horiz-adv-x="644" d="M184 0v1366h88v-1284h346v-82h-434z" />
<glyph unicode="M" horiz-adv-x="1836" d="M170 0l154 1414l590 -1264l596 1264l156 -1414h-92l-122 1098l-538 -1148l-536 1148l-118 -1098h-90z" />
<glyph unicode="N" horiz-adv-x="1602" d="M184 0v1380l1148 -1200v1186h88v-1400l-1148 1200v-1166h-88z" />
<glyph unicode="O" horiz-adv-x="1634" d="M108 682q0 286 210 494t500 208t498 -208t208 -494q0 -290 -208 -497t-498 -207q-292 0 -501 207t-209 497zM200 680q0 -254 182 -436t436 -182q252 0 433 182t181 436t-181 437t-433 183q-254 0 -436 -183t-182 -437z" />
<glyph unicode="P" horiz-adv-x="910" d="M184 0v1366h262q186 0 292 -95t106 -265q0 -166 -106 -261t-290 -95h-176v-650h-88zM272 732h178q138 0 220 75t82 203q0 134 -81 204t-233 70h-166v-552z" />
<glyph unicode="Q" horiz-adv-x="1634" d="M108 680q0 290 209 497t503 207q286 0 495 -206t209 -490q0 -142 -45 -255t-153 -243l178 -190h-118l-122 140q-216 -162 -446 -162q-294 0 -502 206t-208 496zM200 682q0 -254 181 -437t431 -183q202 0 390 140l-340 358h124l276 -304q96 114 133 207t37 219 q0 254 -181 436t-433 182t-435 -182t-183 -436z" />
<glyph unicode="R" horiz-adv-x="956" d="M184 0v1366h192q426 0 426 -362q0 -110 -47 -193t-133 -125q-68 -32 -208 -40l446 -646h-108l-438 646h-42v-646h-88zM272 728h132q146 0 227 73t81 205q0 278 -326 278h-114v-556z" />
<glyph unicode="S" horiz-adv-x="1048" d="M108 270l76 38q64 -132 139 -189t189 -57q138 0 236 94t98 226q0 130 -134 208q-120 64 -136 72l-40 18l-38 20l-40 18q-158 78 -214 147t-56 185q0 142 100 238t250 96q220 0 332 -194l-66 -54q-58 88 -120 126t-148 38q-110 0 -183 -74t-73 -184q0 -82 51 -137 t191 -123q196 -94 272 -140q144 -96 144 -268q0 -164 -126 -280t-300 -116q-284 0 -404 292z" />
<glyph unicode="T" horiz-adv-x="848" d="M26 1284v82h796v-82h-358v-1284h-88v1284h-350z" />
<glyph unicode="U" horiz-adv-x="1296" d="M184 488v878h88v-854q0 -214 50 -292q46 -70 137 -114t191 -44q98 0 188 44t136 114q50 78 50 292v854h88v-878q0 -136 -14 -201t-58 -123q-62 -86 -166 -136t-224 -50q-122 0 -227 50t-167 136q-44 58 -58 123t-14 201z" />
<glyph unicode="V" horiz-adv-x="1040" d="M26 1366h98l400 -1154l394 1154h94l-488 -1422z" />
<glyph unicode="W" horiz-adv-x="2010" d="M26 1366h100l372 -1156l496 1230l462 -1230l426 1156h100l-526 -1418l-462 1240l-508 -1240z" />
<glyph unicode="X" horiz-adv-x="946" d="M48 0l372 698l-358 668h100l310 -576l306 576h102l-358 -668l378 -698h-102l-326 606l-324 -606h-100z" />
<glyph unicode="Y" horiz-adv-x="1052" d="M26 1366h104l388 -686l400 686h104l-460 -782v-584h-88v584z" />
<glyph unicode="Z" horiz-adv-x="1136" d="M76 0l834 1284h-754v82h906l-834 -1284h810v-82h-962z" />
<glyph unicode="[" horiz-adv-x="566" d="M178 -328v1820h308v-80h-220v-1660h220v-80h-308z" />
<glyph unicode="\" horiz-adv-x="1114" d="M-2 1488l64 34l1038 -1846l-66 -32z" />
<glyph unicode="]" horiz-adv-x="566" d="M82 -246h220v1660h-220v78h308v-1820h-308v82z" />
<glyph unicode="^" horiz-adv-x="1024" d="M74 780l378 586h120l378 -586h-102l-338 516l-336 -516h-100z" />
<glyph unicode="_" horiz-adv-x="1024" d="M0 -156h1024v-84h-1024v84z" />
<glyph unicode="`" horiz-adv-x="1024" d="M292 1218l90 52l188 -280l-62 -34z" />
<glyph unicode="a" horiz-adv-x="1054" d="M92 422q0 192 114 312t296 120q200 0 326 -164v146h82v-836h-82v150q-116 -172 -322 -172q-182 0 -298 125t-116 319zM176 422q0 -158 94 -263t234 -105q148 0 239 104t91 274q0 152 -94 249t-240 97q-136 0 -230 -103t-94 -253z" />
<glyph unicode="b" horiz-adv-x="1054" d="M146 0v1492h82v-802q126 164 324 164q182 0 296 -120t114 -312q0 -194 -116 -319t-298 -125q-204 0 -320 172v-150h-82zM222 422q0 -162 92 -265t236 -103q140 0 234 105t94 263q0 150 -92 253t-230 103q-148 0 -241 -99t-93 -257z" />
<glyph unicode="c" horiz-adv-x="902" d="M92 410q0 190 123 317t307 127q160 0 294 -106v-110q-140 140 -296 140q-144 0 -244 -106t-100 -258q0 -150 101 -255t245 -105q172 0 304 150v-110q-140 -116 -304 -116q-182 0 -306 124t-124 308z" />
<glyph unicode="d" horiz-adv-x="1054" d="M92 422q0 192 114 312t296 120q200 0 326 -164v802h82v-1492h-82v150q-116 -172 -322 -172q-182 0 -298 125t-116 319zM176 422q0 -158 94 -263t234 -105q148 0 239 104t91 274q0 152 -94 249t-240 97q-136 0 -230 -103t-94 -253z" />
<glyph unicode="e" horiz-adv-x="990" d="M92 418q0 184 117 310t289 126q178 0 289 -122t113 -324h-718q6 -162 95 -258t231 -96q182 0 294 192l70 -42q-126 -226 -374 -226q-176 0 -291 125t-115 315zM188 486h616q-22 132 -106 212t-198 80q-118 0 -206 -82t-106 -210z" />
<glyph unicode="f" horiz-adv-x="436" d="M54 760v76h92v396q0 286 214 286q40 0 78 -12v-76q-46 10 -68 10q-74 0 -108 -53t-34 -171v-380h210v-76h-210v-760h-82v760h-92z" />
<glyph unicode="g" horiz-adv-x="1066" d="M92 -120h84q16 -134 102 -209t226 -75q162 0 249 109t87 311v128q-140 -164 -332 -164q-172 0 -290 127t-118 311q0 186 121 311t299 125q100 0 173 -38t147 -126v146h82v-820q0 -128 -20 -204t-70 -140q-120 -152 -330 -152q-176 0 -285 96t-125 264zM184 420 q0 -160 92 -262t234 -102q146 0 241 104t95 262q0 154 -96 255t-242 101q-134 0 -229 -105t-95 -253z" />
<glyph unicode="h" horiz-adv-x="902" d="M146 0v1492h82v-788q96 150 256 150q72 0 135 -31t95 -85q42 -72 42 -212v-526h-82v526q0 136 -46 194t-154 58q-246 0 -246 -344v-434h-82z" />
<glyph unicode="i" horiz-adv-x="374" d="M112 1114q0 30 22 52t54 22q30 0 52 -22t22 -52q0 -32 -22 -54t-52 -22q-32 0 -54 21t-22 55zM146 0v836h82v-836h-82z" />
<glyph unicode="j" horiz-adv-x="374" d="M112 1114q0 30 22 52t54 22q30 0 52 -22t22 -52q0 -32 -22 -54t-52 -22q-32 0 -54 21t-22 55zM146 -490v1326h82v-1326h-82z" />
<glyph unicode="k" horiz-adv-x="810" d="M146 0v1492h82v-1010l342 354h106l-350 -362l468 -474h-112l-412 414l-42 -44v-370h-82z" />
<glyph unicode="l" horiz-adv-x="374" d="M146 0v1492h82v-1492h-82z" />
<glyph unicode="m" horiz-adv-x="1326" d="M146 0v836h82v-104q76 122 214 122q160 0 234 -152q78 152 248 152q138 0 210 -92q52 -68 52 -216v-546h-82v558q0 116 -44 168t-138 52q-106 0 -161 -70t-55 -204v-504h-82v536q0 118 -48 180t-136 62q-102 0 -157 -76t-55 -218v-484h-82z" />
<glyph unicode="n" horiz-adv-x="900" d="M146 0v836h82v-132q96 150 254 150q74 0 136 -31t94 -85q42 -72 42 -212v-526h-82v526q0 136 -46 194t-154 58q-244 0 -244 -344v-434h-82z" />
<glyph unicode="o" horiz-adv-x="1058" d="M92 414q0 182 127 311t307 129q188 0 314 -126t126 -312t-127 -312t-313 -126q-180 0 -307 128t-127 308zM176 416q0 -150 102 -256t244 -106q154 0 257 104t103 258t-103 258t-257 104q-144 0 -245 -106t-101 -256z" />
<glyph unicode="p" horiz-adv-x="1054" d="M146 -490v1326h82v-150q116 168 320 168q182 0 298 -124t116 -318q0 -192 -114 -313t-296 -121q-198 0 -324 168v-636h-82zM222 402q0 -152 94 -250t240 -98q136 0 229 103t93 255q0 156 -94 261t-234 105q-148 0 -238 -103t-90 -273z" />
<glyph unicode="q" horiz-adv-x="1054" d="M92 412q0 194 116 318t298 124q206 0 322 -168v150h82v-1326h-82v636q-126 -168 -326 -168q-182 0 -296 121t-114 313zM176 412q0 -152 94 -255t230 -103q148 0 241 99t93 257q0 162 -93 265t-237 103q-140 0 -234 -105t-94 -261z" />
<glyph unicode="r" horiz-adv-x="532" d="M146 0v836h82v-108q66 126 184 126q42 0 90 -20l-46 -72q-30 18 -56 18q-44 0 -86 -29t-62 -73q-24 -60 -24 -230v-448h-82z" />
<glyph unicode="s" horiz-adv-x="700" d="M78 198l80 26q56 -170 208 -170q80 0 133 54t53 134q0 62 -34 98t-126 70q-136 50 -191 100t-55 128q0 92 65 154t163 62q138 0 214 -136l-70 -36q-50 96 -148 96q-56 0 -98 -39t-42 -91t34 -83t130 -69q114 -42 162 -76q80 -58 80 -182q0 -112 -77 -186t-193 -74 q-220 0 -288 220z" />
<glyph unicode="t" horiz-adv-x="396" d="M62 760v76h92v298h82v-298h146v-76h-146v-760h-82v760h-92z" />
<glyph unicode="u" horiz-adv-x="892" d="M146 310v526h82v-498q0 -130 26 -184q22 -44 75 -72t117 -28q62 0 115 28t75 72q28 60 28 184v498h82v-526q0 -158 -62 -230q-86 -102 -238 -102q-154 0 -240 102q-36 40 -48 90t-12 140z" />
<glyph unicode="v" horiz-adv-x="798" d="M16 836h96l290 -676l288 676h92l-380 -888z" />
<glyph unicode="w" horiz-adv-x="1376" d="M16 836h94l284 -672l290 722l288 -722l292 672h96l-388 -888l-288 726l-288 -726z" />
<glyph unicode="x" horiz-adv-x="820" d="M16 0l340 438l-308 398h106l258 -334l254 334h106l-304 -398l336 -438h-106l-286 374l-288 -374h-108z" />
<glyph unicode="y" horiz-adv-x="876" d="M16 836h96l342 -742l312 742h94l-560 -1326h-94l206 476z" />
<glyph unicode="z" horiz-adv-x="926" d="M36 0l682 760h-572v76h744l-678 -760h674v-76h-850z" />
<glyph unicode="{" horiz-adv-x="490" d="M74 552v62q76 20 97 69t21 209v356q0 254 186 254h36h18v-74q-14 -2 -30 -2q-72 -2 -97 -37t-25 -137v-362q0 -154 -16 -207t-74 -99q50 -40 70 -86t20 -124v-460q0 -100 26 -137t96 -37h30v-76h-18h-36q-186 0 -186 254v454q0 80 -26 120t-92 60z" />
<glyph unicode="|" horiz-adv-x="1024" d="M466 -342v1708h90v-1708h-90z" />
<glyph unicode="}" horiz-adv-x="490" d="M60 -260h30q70 0 95 37t25 137v362q0 152 17 207t75 101q-52 40 -72 84t-20 122v462q0 102 -24 137t-96 37q-16 0 -30 2v74h18h34q188 0 188 -254v-456q0 -80 26 -120t92 -58v-62q-76 -22 -97 -71t-21 -209v-354q0 -254 -188 -254h-34h-18v76z" />
<glyph unicode="~" horiz-adv-x="1366" d="M192 1254q60 114 122 162t144 48q84 0 238 -78q142 -74 214 -74q100 0 174 112q32 46 42 46q16 0 46 -36q-116 -210 -264 -210q-52 0 -105 18t-169 76t-186 58q-98 0 -174 -118q-24 -44 -36 -44q-20 0 -46 40z" />
<glyph unicode="&#xa1;" horiz-adv-x="530" d="M190 978q0 30 22 52t54 22q30 0 52 -22t22 -52q0 -32 -22 -53t-52 -21t-53 22t-23 52zM222 -328v1120h88v-1120h-88z" />
<glyph unicode="&#xa2;" d="M192 690q0 176 104 297t276 143v212h80v-210q142 -8 264 -106v-106q-68 68 -126 97t-138 39v-720q150 12 274 148v-110q-128 -108 -274 -116v-232h-80v234q-170 22 -275 141t-105 289zM276 692q0 -136 86 -238t210 -116v714q-134 -22 -215 -121t-81 -239z" />
<glyph unicode="&#xa3;" d="M140 46q106 116 242 116q116 110 116 218q0 8 -4 52h-226v82h204q-62 120 -148 252q-98 146 -98 260q0 152 104 253t260 101q150 0 249 -103t99 -259h-86q-6 130 -77 204t-193 74q-110 0 -188 -78t-78 -190q0 -78 58 -178l6 -9q2 -3 4 -8t20 -33t48 -78q90 -148 114 -208 h246v-82h-232q6 -38 6 -58q0 -122 -102 -230q34 -12 67 -24t63 -22q106 -36 148 -36q112 0 194 142l74 -44q-110 -186 -258 -186q-74 0 -224 56q-124 44 -170 44q-82 0 -190 -94z" />
<glyph unicode="&#xa4;" horiz-adv-x="1366" d="M144 1196l52 54l184 -186q142 116 304 116q160 0 296 -112l188 182l52 -54l-184 -184q108 -138 108 -296q0 -156 -110 -292l186 -186l-50 -54l-190 186q-134 -110 -298 -110q-156 0 -294 106l-186 -184l-52 56l184 182q-112 132 -112 296q0 158 106 296zM306 716 q0 -154 111 -265t267 -111t266 111t110 273q0 152 -112 264t-264 112q-158 0 -268 -112t-110 -272z" />
<glyph unicode="&#xa5;" d="M62 1366h104l386 -686l400 686h106l-284 -484h248v-82h-298l-124 -210h422v-82h-426v-508h-88v508h-410v82h406l-122 210h-284v82h238z" />
<glyph unicode="&#xa6;" horiz-adv-x="1024" d="M466 314h90v-656h-90v656zM466 698v668h90v-668h-90z" />
<glyph unicode="&#xa7;" d="M204 582q0 230 222 332q-104 52 -146 118t-42 172q0 140 93 225t247 85q214 0 288 -154q28 -60 38 -198h-92q0 270 -232 270q-116 0 -183 -64t-67 -174q0 -106 84 -172q56 -42 194 -82q166 -52 237 -133t71 -221q0 -216 -222 -330q198 -86 198 -300q0 -144 -88 -224 t-244 -80q-222 0 -292 146q-26 60 -32 208h90q0 -148 53 -210t181 -62q114 0 177 61t63 171q0 132 -112 194q-50 28 -206 82q-278 100 -278 340zM296 586q0 -110 78 -187t188 -77t186 77t76 187q0 108 -77 185t-185 77q-112 0 -189 -76t-77 -186z" />
<glyph unicode="&#xa8;" horiz-adv-x="1024" d="M268 1078q0 30 22 51t54 21q30 0 52 -21t22 -51q0 -32 -22 -54t-52 -22t-53 23t-23 53zM608 1078q0 30 22 51t54 21q30 0 52 -21t22 -51q0 -32 -22 -54t-52 -22q-32 0 -54 21t-22 55z" />
<glyph unicode="&#xa9;" horiz-adv-x="1514" d="M56 684q0 292 206 497t498 205t497 -205t205 -497t-205 -498t-497 -206t-498 206t-206 498zM154 684q0 -252 177 -429t429 -177q250 0 427 177t177 429q0 250 -177 427t-427 177q-252 0 -429 -177t-177 -427zM382 680q0 162 120 279t286 117q140 0 264 -106v-108 q-120 140 -266 140q-130 0 -228 -98t-98 -230t97 -230t229 -98q148 0 266 136v-108q-128 -100 -264 -100q-168 0 -287 119t-119 287z" />
<glyph unicode="&#xaa;" horiz-adv-x="690" d="M60 1082q0 126 75 205t193 79q130 0 212 -106v94h54v-550h-54v100q-80 -114 -210 -114q-116 0 -193 83t-77 209zM68 656v54h540v-54h-540zM114 1082q0 -104 62 -173t154 -69q98 0 156 69t58 181q0 100 -60 163t-158 63q-90 0 -151 -67t-61 -167z" />
<glyph unicode="&#xab;" horiz-adv-x="710" d="M68 424l264 306l50 -50l-216 -256l216 -258l-50 -50zM284 424l264 306l54 -50l-220 -256l220 -258l-54 -50z" />
<glyph unicode="&#xac;" horiz-adv-x="1024" d="M68 464v82h886v-546h-88v464h-798z" />
<glyph unicode="&#xad;" horiz-adv-x="344" d="M0 382v82h344v-82h-344z" />
<glyph unicode="&#xae;" horiz-adv-x="1514" d="M56 684q0 292 206 497t496 205q294 0 499 -205t205 -497t-206 -498t-498 -206t-497 206t-205 498zM154 684q0 -252 177 -429t427 -177q252 0 429 177t177 429q0 250 -177 427t-429 177q-250 0 -427 -177t-177 -427zM600 286v778h118q250 0 250 -212q0 -188 -204 -206 l248 -360h-94l-242 358v-358h-76zM676 714h58q156 0 156 140t-168 140h-46v-280z" />
<glyph unicode="&#xaf;" horiz-adv-x="1024" d="M236 1010v80h550v-80h-550z" />
<glyph unicode="&#xb0;" horiz-adv-x="818" d="M102 1096q0 128 91 218t219 90q130 0 217 -88t87 -222q0 -132 -89 -223t-217 -91q-130 0 -219 91t-89 225zM218 1088q0 -76 56 -133t130 -57q84 0 140 55t56 137q0 84 -55 141t-137 57q-80 0 -135 -58t-55 -142z" />
<glyph unicode="&#xb1;" horiz-adv-x="1124" d="M20 742v112h486v502h112v-502h486v-112h-486v-478h-112v478h-486zM22 0v112h1074v-112h-1074z" />
<glyph unicode="&#xb2;" horiz-adv-x="792" d="M106 546l342 354q82 86 114 137t32 101q0 74 -56 125t-138 51q-90 0 -141 -49t-55 -141h-68q2 98 38 146t99 77t127 29q112 0 188 -70t76 -172q0 -68 -36 -126t-152 -176l-216 -224h400v-62h-554z" />
<glyph unicode="&#xb3;" horiz-adv-x="792" d="M140 758h66q8 -74 56 -117t124 -43q78 0 134 52t56 126t-51 117t-145 47v62q84 4 134 47t50 111q0 66 -46 109t-116 43q-144 0 -162 -152h-68q24 216 230 216q98 0 164 -63t66 -153q0 -128 -118 -188q62 -24 97 -77t35 -123q0 -98 -76 -168t-182 -70q-110 0 -177 60 t-71 164z" />
<glyph unicode="&#xb4;" horiz-adv-x="1024" d="M436 990l186 280l90 -52l-216 -262z" />
<glyph unicode="&#xb5;" horiz-adv-x="1178" d="M68 -308q0 62 34 194q24 92 24 154v984h182v-678q0 -108 49 -168t137 -60q124 0 228 150v756h184v-756q0 -82 28 -133t72 -51q38 0 67 41t33 99l56 -2q-22 -120 -85 -184t-161 -64q-78 0 -123 44t-69 146q-162 -190 -316 -190q-52 0 -95 20t-107 74q0 -84 26 -176 q38 -134 38 -188q0 -70 -28 -111t-74 -41q-44 0 -72 40t-28 100z" />
<glyph unicode="&#xb6;" d="M116 1026q0 160 99 250t275 90h498l-38 -76h-90v-1498h-82v1498h-236v-1498h-82v900h-26q-140 0 -229 94t-89 240z" />
<glyph unicode="&#xb7;" horiz-adv-x="420" d="M138 424q0 30 21 52t53 22q30 0 52 -22t22 -52q0 -32 -22 -54t-52 -22t-52 23t-22 53z" />
<glyph unicode="&#xb8;" horiz-adv-x="1024" d="M376 -364l168 262l102 -42l-200 -254z" />
<glyph unicode="&#xb9;" horiz-adv-x="792" d="M248 1304l32 62h176v-820h-68v758h-140z" />
<glyph unicode="&#xba;" horiz-adv-x="694" d="M60 1080q0 118 83 202t201 84q122 0 205 -82t83 -204t-83 -205t-205 -83q-118 0 -201 85t-83 203zM76 656v54h540v-54h-540zM114 1080q0 -98 67 -168t161 -70q100 0 168 68t68 170t-68 169t-168 67q-94 0 -161 -69t-67 -167z" />
<glyph unicode="&#xbb;" horiz-adv-x="710" d="M108 166l220 258l-220 256l52 50l264 -306l-264 -308zM326 166l218 258l-218 256l50 50l268 -306l-268 -308z" />
<glyph unicode="&#xbc;" horiz-adv-x="1850" d="M248 1304l32 62h176v-820h-68v758h-140zM492 2l810 1394l58 -30l-810 -1396zM1104 154l538 706v-644h122v-62h-122v-154h-70v154h-468zM1232 216h340v446z" />
<glyph unicode="&#xbd;" horiz-adv-x="1850" d="M248 1304l32 62h176v-820h-68v758h-140zM492 2l810 1394l58 -30l-810 -1396zM1166 0l342 352q80 84 112 136t32 102q0 74 -56 125t-138 51q-184 0 -194 -188h-70q2 96 38 144t99 78t127 30q112 0 188 -70t76 -172q0 -68 -36 -127t-152 -177l-216 -222h400v-62h-552z" />
<glyph unicode="&#xbe;" horiz-adv-x="1850" d="M140 758h66q8 -74 56 -117t124 -43q78 0 134 52t56 126t-51 117t-145 47v62q84 4 134 47t50 111q0 66 -46 109t-116 43q-144 0 -162 -152h-68q24 216 230 216q98 0 164 -63t66 -153q0 -128 -118 -188q62 -24 97 -77t35 -123q0 -98 -76 -168t-182 -70q-110 0 -177 60 t-71 164zM492 2l808 1394l60 -30l-810 -1396zM1102 154l538 706v-644h124v-62h-124v-154h-70v154h-468zM1230 216h340v446z" />
<glyph unicode="&#xbf;" horiz-adv-x="952" d="M150 -6q0 82 37 156t97 114q52 32 122 50l66 16l32 10q166 44 166 188q0 88 -57 146t-145 58q-174 0 -192 -220h-82v20q0 124 79 202t201 78t203 -80t81 -202q0 -208 -256 -278q-100 -26 -131 -39t-59 -37q-74 -58 -74 -180q0 -112 69 -184t173 -72q100 0 167 69t67 171 q0 40 -12 96h84q14 -78 14 -112q0 -130 -93 -217t-231 -87q-144 0 -235 93t-91 241zM402 976q0 30 22 52t54 22q30 0 51 -22t21 -52q0 -32 -21 -53t-51 -21t-53 22t-23 52z" />
<glyph unicode="&#xc0;" horiz-adv-x="1196" d="M26 0l574 1406l570 -1406h-100l-182 448h-580l-184 -448h-98zM328 1672l102 62l250 -220l-72 -54zM340 530h516l-256 648z" />
<glyph unicode="&#xc1;" horiz-adv-x="1196" d="M26 0l574 1406l570 -1406h-100l-182 448h-580l-184 -448h-98zM340 530h516l-256 648zM518 1514l250 220l102 -62l-280 -212z" />
<glyph unicode="&#xc2;" horiz-adv-x="1196" d="M26 0l574 1406l570 -1406h-100l-182 448h-580l-184 -448h-98zM340 530h516l-256 648zM342 1528l256 196l256 -196l-76 -58l-180 140l-184 -140z" />
<glyph unicode="&#xc3;" horiz-adv-x="1196" d="M26 0l574 1406l570 -1406h-100l-182 448h-580l-184 -448h-98zM332 1514q52 122 146 122q44 0 126 -34q88 -38 114 -38q54 0 86 78l58 -44q-18 -58 -59 -91t-93 -33q-26 0 -114 36q-90 36 -124 36q-54 0 -78 -78zM340 530h516l-256 648z" />
<glyph unicode="&#xc4;" horiz-adv-x="1196" d="M26 0l574 1406l570 -1406h-100l-182 448h-580l-184 -448h-98zM330 1598q0 34 23 56t57 22t56 -22t22 -56t-22 -57t-56 -23t-57 23t-23 57zM340 530h516l-256 648zM710 1598q0 34 23 56t57 22t56 -22t22 -56t-22 -57t-56 -23t-57 23t-23 57z" />
<glyph unicode="&#xc5;" horiz-adv-x="1196" d="M26 0l574 1406l570 -1406h-100l-182 448h-580l-184 -448h-98zM340 530h516l-256 648zM434 1612q0 68 48 116t116 48t116 -48t48 -116t-48 -116t-116 -48t-116 48t-48 116zM514 1612q0 -34 25 -59t59 -25q36 0 60 24t24 60t-24 60t-60 24t-60 -24t-24 -60z" />
<glyph unicode="&#xc6;" horiz-adv-x="1742" d="M26 0l552 1366h594l32 -82h-562l202 -496h548l34 -82h-548l252 -624h566l32 -82h-660l-182 448h-584l-178 -448h-98zM336 530h516l-260 644z" />
<glyph unicode="&#xc7;" horiz-adv-x="1386" d="M108 680q0 290 211 497t503 207q246 0 454 -176v-122q-190 214 -458 214q-248 0 -433 -184t-185 -432q0 -254 183 -438t433 -184q268 0 460 204v-118q-218 -170 -454 -170q-290 0 -502 209t-212 493zM588 -374l180 272l112 -52l-218 -260z" />
<glyph unicode="&#xc8;" horiz-adv-x="948" d="M184 0v1366h654v-82h-566v-496h554v-82h-554v-624h566v-82h-654zM218 1672l102 62l250 -220l-72 -54z" />
<glyph unicode="&#xc9;" horiz-adv-x="948" d="M184 0v1366h654v-82h-566v-496h554v-82h-554v-624h566v-82h-654zM312 1514l250 220l102 -62l-282 -212z" />
<glyph unicode="&#xca;" horiz-adv-x="948" d="M184 0v1366h654v-82h-566v-496h554v-82h-554v-624h566v-82h-654zM258 1528l256 196l256 -196l-76 -58l-180 140l-184 -140z" />
<glyph unicode="&#xcb;" horiz-adv-x="948" d="M184 0v1366h654v-82h-566v-496h554v-82h-554v-624h566v-82h-654zM246 1598q0 34 23 56t57 22t56 -22t22 -56t-22 -57t-56 -23t-57 23t-23 57zM626 1598q0 34 23 56t57 22t56 -22t22 -56t-22 -57t-56 -23t-57 23t-23 57z" />
<glyph unicode="&#xcc;" horiz-adv-x="456" d="M-44 1672l104 62l250 -220l-72 -54zM184 0v1366h88v-1366h-88z" />
<glyph unicode="&#xcd;" horiz-adv-x="456" d="M148 1514l250 220l102 -62l-280 -212zM184 0v1366h88v-1366h-88z" />
<glyph unicode="&#xce;" horiz-adv-x="456" d="M-26 1528l256 196l256 -196l-76 -58l-180 140l-184 -140zM184 0v1366h88v-1366h-88z" />
<glyph unicode="&#xcf;" horiz-adv-x="456" d="M20 1598q0 34 23 56t57 22q32 0 55 -22t23 -56t-22 -57t-56 -23t-57 23t-23 57zM184 0v1366h88v-1366h-88zM278 1598q0 34 23 56t57 22t56 -22t22 -56t-22 -57t-56 -23t-57 23t-23 57z" />
<glyph unicode="&#xd0;" horiz-adv-x="1262" d="M48 656v82h136v628h270q310 0 500 -188q202 -198 202 -498q0 -294 -202 -490q-190 -190 -500 -190h-270v656h-136zM272 82h180q268 0 439 168t171 430q0 266 -171 435t-439 169h-180v-546h342v-82h-342v-574z" />
<glyph unicode="&#xd1;" horiz-adv-x="1602" d="M184 0v1380l1148 -1200v1186h88v-1400l-1148 1200v-1166h-88zM536 1514q52 122 146 122q44 0 126 -34q88 -38 116 -38q54 0 86 78l58 -44q-18 -58 -59 -91t-93 -33q-28 0 -116 36q-90 36 -124 36q-54 0 -78 -78z" />
<glyph unicode="&#xd2;" horiz-adv-x="1634" d="M108 682q0 286 210 494t500 208t498 -208t208 -494q0 -290 -208 -497t-498 -207q-292 0 -501 207t-209 497zM200 680q0 -254 182 -436t436 -182q252 0 433 182t181 436t-181 437t-433 183q-254 0 -436 -183t-182 -437zM544 1672l104 62l250 -220l-72 -54z" />
<glyph unicode="&#xd3;" horiz-adv-x="1634" d="M108 682q0 286 210 494t500 208t498 -208t208 -494q0 -290 -208 -497t-498 -207q-292 0 -501 207t-209 497zM200 680q0 -254 182 -436t436 -182q252 0 433 182t181 436t-181 437t-433 183q-254 0 -436 -183t-182 -437zM736 1514l250 220l102 -62l-282 -212z" />
<glyph unicode="&#xd4;" horiz-adv-x="1634" d="M108 682q0 286 210 494t500 208t498 -208t208 -494q0 -290 -208 -497t-498 -207q-292 0 -501 207t-209 497zM200 680q0 -254 182 -436t436 -182q252 0 433 182t181 436t-181 437t-433 183q-254 0 -436 -183t-182 -437zM562 1528l256 196l256 -196l-76 -58l-180 140 l-186 -140z" />
<glyph unicode="&#xd5;" horiz-adv-x="1634" d="M108 682q0 286 210 494t500 208t498 -208t208 -494q0 -290 -208 -497t-498 -207q-292 0 -501 207t-209 497zM200 680q0 -254 182 -436t436 -182q252 0 433 182t181 436t-181 437t-433 183q-254 0 -436 -183t-182 -437zM550 1514q52 122 146 122q46 0 128 -34 q88 -38 114 -38q54 0 86 78l58 -44q-18 -58 -59 -91t-93 -33q-26 0 -114 36q-90 36 -126 36q-54 0 -78 -78z" />
<glyph unicode="&#xd6;" horiz-adv-x="1634" d="M108 682q0 286 210 494t500 208t498 -208t208 -494q0 -290 -208 -497t-498 -207q-292 0 -501 207t-209 497zM200 680q0 -254 182 -436t436 -182q252 0 433 182t181 436t-181 437t-433 183q-254 0 -436 -183t-182 -437zM546 1598q0 34 23 56t57 22t56 -22t22 -56t-22 -57 t-56 -23t-57 23t-23 57zM928 1598q0 34 23 56t57 22q32 0 55 -22t23 -56t-22 -57t-56 -23t-57 23t-23 57z" />
<glyph unicode="&#xd7;" d="M158 350l346 346l-346 346l54 58l348 -348l348 348l54 -58l-346 -346l346 -346l-54 -56l-348 348l-348 -348z" />
<glyph unicode="&#xd8;" horiz-adv-x="1634" d="M108 680q0 290 209 497t501 207q246 0 458 -172l166 166l56 -52l-164 -166q190 -212 190 -478q0 -290 -208 -497t-498 -207q-260 0 -478 186l-164 -166l-56 54l164 166q-176 206 -176 462zM200 680q0 -230 150 -404l862 878q-174 146 -394 146q-254 0 -436 -183 t-182 -437zM404 222q184 -160 412 -160q254 0 435 182t181 438q0 240 -164 420z" />
<glyph unicode="&#xd9;" horiz-adv-x="1296" d="M184 488v878h88v-854q0 -214 50 -292q46 -70 137 -114t191 -44q98 0 188 44t136 114q50 78 50 292v854h88v-878q0 -136 -14 -201t-58 -123q-62 -86 -166 -136t-224 -50q-122 0 -227 50t-167 136q-44 58 -58 123t-14 201zM376 1672l104 62l250 -220l-72 -54z" />
<glyph unicode="&#xda;" horiz-adv-x="1296" d="M184 488v878h88v-854q0 -214 50 -292q46 -70 137 -114t191 -44q98 0 188 44t136 114q50 78 50 292v854h88v-878q0 -136 -14 -201t-58 -123q-62 -86 -166 -136t-224 -50q-122 0 -227 50t-167 136q-44 58 -58 123t-14 201zM568 1514l250 220l102 -62l-282 -212z" />
<glyph unicode="&#xdb;" horiz-adv-x="1296" d="M184 488v878h88v-854q0 -214 50 -292q46 -70 137 -114t191 -44q98 0 188 44t136 114q50 78 50 292v854h88v-878q0 -136 -14 -201t-58 -123q-62 -86 -166 -136t-224 -50q-122 0 -227 50t-167 136q-44 58 -58 123t-14 201zM394 1528l256 196l256 -196l-76 -58l-180 140 l-186 -140z" />
<glyph unicode="&#xdc;" horiz-adv-x="1296" d="M184 488v878h88v-854q0 -214 50 -292q46 -70 137 -114t191 -44q98 0 188 44t136 114q50 78 50 292v854h88v-878q0 -136 -14 -201t-58 -123q-62 -86 -166 -136t-224 -50q-122 0 -227 50t-167 136q-44 58 -58 123t-14 201zM378 1598q0 34 23 56t57 22t56 -22t22 -56 t-22 -57t-56 -23t-57 23t-23 57zM760 1598q0 34 23 56t57 22q32 0 55 -22t23 -56t-22 -57t-56 -23t-57 23t-23 57z" />
<glyph unicode="&#xdd;" horiz-adv-x="1052" d="M26 1366h104l388 -686l400 686h104l-460 -782v-584h-88v584zM444 1514l250 220l102 -62l-280 -212z" />
<glyph unicode="&#xde;" horiz-adv-x="910" d="M184 0v1366h88v-192h174q186 0 292 -95t106 -265q0 -166 -106 -262t-290 -96h-176v-456h-88zM272 538h178q138 0 220 76t82 204q0 134 -81 204t-233 70h-166v-554z" />
<glyph unicode="&#xdf;" horiz-adv-x="1006" d="M58 760v76h88v362q0 152 79 236t221 84q124 0 207 -84t83 -208q0 -176 -160 -252q114 -40 174 -96q74 -64 119 -168t45 -208q0 -200 -136 -342t-354 -170v84q184 26 295 143t111 285q0 108 -49 202t-133 150q-88 58 -224 78v72q228 24 228 228q0 90 -61 150t-153 60 q-110 0 -160 -65t-50 -207v-1170h-82v760h-88z" />
<glyph unicode="&#xe0;" horiz-adv-x="1054" d="M92 422q0 192 114 312t296 120q200 0 326 -164v146h82v-836h-82v150q-116 -172 -322 -172q-182 0 -298 125t-116 319zM176 422q0 -158 94 -263t234 -105q148 0 239 104t91 274q0 152 -94 249t-240 97q-136 0 -230 -103t-94 -253zM294 1218l92 52l186 -280l-62 -34z" />
<glyph unicode="&#xe1;" horiz-adv-x="1054" d="M92 422q0 192 114 312t296 120q200 0 326 -164v146h82v-836h-82v150q-116 -172 -322 -172q-182 0 -298 125t-116 319zM176 422q0 -158 94 -263t234 -105q148 0 239 104t91 274q0 152 -94 249t-240 97q-136 0 -230 -103t-94 -253zM452 990l186 280l92 -52l-218 -262z" />
<glyph unicode="&#xe2;" horiz-adv-x="1054" d="M92 422q0 192 114 312t296 120q200 0 326 -164v146h82v-836h-82v150q-116 -172 -322 -172q-182 0 -298 125t-116 319zM176 422q0 -158 94 -263t234 -105q148 0 239 104t91 274q0 152 -94 249t-240 97q-136 0 -230 -103t-94 -253zM258 1008l248 192l250 -192l-68 -52 l-182 140l-182 -140z" />
<glyph unicode="&#xe3;" horiz-adv-x="1054" d="M92 422q0 192 114 312t296 120q200 0 326 -164v146h82v-836h-82v150q-116 -172 -322 -172q-182 0 -298 125t-116 319zM176 422q0 -158 94 -263t234 -105q148 0 239 104t91 274q0 152 -94 249t-240 97q-136 0 -230 -103t-94 -253zM246 1036q52 118 142 118q38 0 122 -36 q86 -36 116 -36q56 0 88 76l54 -42q-18 -54 -58 -85t-90 -31q-26 0 -114 34q-94 38 -128 38q-54 0 -78 -74z" />
<glyph unicode="&#xe4;" horiz-adv-x="1054" d="M92 422q0 192 114 312t296 120q200 0 326 -164v146h82v-836h-82v150q-116 -172 -322 -172q-182 0 -298 125t-116 319zM176 422q0 -158 94 -263t234 -105q148 0 239 104t91 274q0 152 -94 249t-240 97q-136 0 -230 -103t-94 -253zM270 1078q0 30 22 51t54 21q30 0 52 -21 t22 -51q0 -32 -22 -54t-52 -22t-53 23t-23 53zM610 1078q0 30 22 51t54 21q30 0 52 -21t22 -51q0 -32 -22 -54t-52 -22q-34 0 -55 21t-21 55z" />
<glyph unicode="&#xe5;" horiz-adv-x="1054" d="M92 422q0 192 114 312t296 120q200 0 326 -164v146h82v-836h-82v150q-116 -172 -322 -172q-182 0 -298 125t-116 319zM176 422q0 -158 94 -263t234 -105q148 0 239 104t91 274q0 152 -94 249t-240 97q-136 0 -230 -103t-94 -253zM350 1126q0 64 46 110t112 46 q64 0 110 -46t46 -110q0 -66 -46 -112t-110 -46q-66 0 -112 46t-46 112zM422 1124q0 -34 25 -59t61 -25t60 24t24 60t-24 60t-60 24t-61 -24t-25 -60z" />
<glyph unicode="&#xe6;" horiz-adv-x="1624" d="M92 240q0 116 101 189t263 73t266 -86q0 176 -74 269t-216 93q-118 0 -282 -78v84q146 70 282 70q248 0 342 -234q116 234 354 234q116 0 212 -61t146 -167q40 -96 48 -220h-718q8 -164 94 -258t228 -94q176 0 298 190l70 -50q-144 -216 -372 -216q-114 0 -205 55 t-139 153q-32 -100 -123 -154t-225 -54q-154 0 -252 73t-98 189zM176 240q0 -88 72 -137t200 -49q120 0 195 54t75 138q0 82 -72 131t-190 49q-128 0 -204 -50t-76 -136zM822 484h618q-22 134 -106 214t-202 80q-122 0 -205 -79t-105 -215z" />
<glyph unicode="&#xe7;" horiz-adv-x="902" d="M92 410q0 190 123 317t307 127q160 0 294 -106v-110q-140 140 -296 140q-144 0 -244 -106t-100 -258q0 -150 101 -255t245 -105q172 0 304 150v-110q-140 -116 -304 -116q-182 0 -306 124t-124 308zM332 -364l168 262l100 -42l-200 -254z" />
<glyph unicode="&#xe8;" horiz-adv-x="990" d="M92 418q0 184 117 310t289 126q178 0 289 -122t113 -324h-718q6 -162 95 -258t231 -96q182 0 294 192l70 -42q-126 -226 -374 -226q-176 0 -291 125t-115 315zM188 486h616q-22 132 -106 212t-198 80q-118 0 -206 -82t-106 -210zM276 1218l90 52l186 -280l-60 -34z" />
<glyph unicode="&#xe9;" horiz-adv-x="990" d="M92 418q0 184 117 310t289 126q178 0 289 -122t113 -324h-718q6 -162 95 -258t231 -96q182 0 294 192l70 -42q-126 -226 -374 -226q-176 0 -291 125t-115 315zM188 486h616q-22 132 -106 212t-198 80q-118 0 -206 -82t-106 -210zM440 990l186 280l90 -52l-216 -262z" />
<glyph unicode="&#xea;" horiz-adv-x="990" d="M92 418q0 184 117 310t289 126q178 0 289 -122t113 -324h-718q6 -162 95 -258t231 -96q182 0 294 192l70 -42q-126 -226 -374 -226q-176 0 -291 125t-115 315zM188 486h616q-22 132 -106 212t-198 80q-118 0 -206 -82t-106 -210zM246 1008l248 192l250 -192l-68 -52 l-182 140l-182 -140z" />
<glyph unicode="&#xeb;" horiz-adv-x="990" d="M92 418q0 184 117 310t289 126q178 0 289 -122t113 -324h-718q6 -162 95 -258t231 -96q182 0 294 192l70 -42q-126 -226 -374 -226q-176 0 -291 125t-115 315zM188 486h616q-22 132 -106 212t-198 80q-118 0 -206 -82t-106 -210zM252 1078q0 30 22 51t54 21q30 0 52 -21 t22 -51q0 -32 -22 -54t-52 -22t-53 23t-23 53zM592 1078q0 30 22 51t54 21q30 0 52 -21t22 -51q0 -32 -22 -54t-52 -22q-32 0 -54 21t-22 55z" />
<glyph unicode="&#xec;" horiz-adv-x="374" d="M-40 1218l90 52l186 -280l-62 -34zM146 0v836h82v-836h-82z" />
<glyph unicode="&#xed;" horiz-adv-x="374" d="M140 990l186 280l90 -52l-218 -262zM146 0v836h82v-836h-82z" />
<glyph unicode="&#xee;" horiz-adv-x="374" d="M-62 1008l248 192l250 -192l-68 -52l-182 140l-182 -140zM148 0v836h82v-836h-82z" />
<glyph unicode="&#xef;" horiz-adv-x="374" d="M-10 1078q0 30 22 51t54 21q30 0 52 -21t22 -51q0 -32 -22 -54t-52 -22t-53 23t-23 53zM146 0v836h82v-836h-82zM234 1078q0 30 22 51t54 21q30 0 51 -21t21 -51q0 -32 -21 -54t-51 -22t-53 23t-23 53z" />
<glyph unicode="&#xf0;" horiz-adv-x="1058" d="M92 414q0 182 127 310t305 128q180 0 318 -132q-58 192 -141 309t-255 243l-288 -154l-34 60l258 136q-142 88 -276 128l38 58q170 -48 310 -140l292 152l32 -62l-258 -136q448 -336 448 -864q0 -214 -120 -343t-320 -129q-184 0 -310 127t-126 309zM176 414 q0 -148 102 -254t244 -106q154 0 257 103t103 257t-103 258t-257 104q-144 0 -245 -106t-101 -256z" />
<glyph unicode="&#xf1;" horiz-adv-x="900" d="M146 0v836h82v-132q96 150 254 150q74 0 136 -31t94 -85q42 -72 42 -212v-526h-82v526q0 136 -46 194t-154 58q-244 0 -244 -344v-434h-82zM230 1036q52 118 140 118q40 0 124 -36q86 -36 116 -36q56 0 88 76l54 -42q-18 -54 -58 -85t-90 -31q-26 0 -114 34 q-94 38 -128 38q-56 0 -80 -74z" />
<glyph unicode="&#xf2;" horiz-adv-x="1058" d="M92 414q0 182 127 311t307 129q188 0 314 -126t126 -312t-127 -312t-313 -126q-180 0 -307 128t-127 308zM176 416q0 -150 102 -256t244 -106q154 0 257 104t103 258t-103 258t-257 104q-144 0 -245 -106t-101 -256zM310 1218l90 52l186 -280l-62 -34z" />
<glyph unicode="&#xf3;" horiz-adv-x="1058" d="M92 414q0 182 127 311t307 129q188 0 314 -126t126 -312t-127 -312t-313 -126q-180 0 -307 128t-127 308zM176 416q0 -150 102 -256t244 -106q154 0 257 104t103 258t-103 258t-257 104q-144 0 -245 -106t-101 -256zM454 990l188 280l90 -52l-218 -262z" />
<glyph unicode="&#xf4;" horiz-adv-x="1058" d="M92 414q0 182 127 311t307 129q188 0 314 -126t126 -312t-127 -312t-313 -126q-180 0 -307 128t-127 308zM176 416q0 -150 102 -256t244 -106q154 0 257 104t103 258t-103 258t-257 104q-144 0 -245 -106t-101 -256zM280 1008l248 192l250 -192l-68 -52l-182 140 l-182 -140z" />
<glyph unicode="&#xf5;" horiz-adv-x="1058" d="M92 414q0 182 127 311t307 129q188 0 314 -126t126 -312t-127 -312t-313 -126q-180 0 -307 128t-127 308zM176 416q0 -150 102 -256t244 -106q154 0 257 104t103 258t-103 258t-257 104q-144 0 -245 -106t-101 -256zM268 1036q52 118 142 118q38 0 122 -36 q86 -36 118 -36q56 0 88 76l52 -42q-18 -54 -57 -85t-89 -31q-28 0 -116 34q-96 38 -126 38q-56 0 -80 -74z" />
<glyph unicode="&#xf6;" horiz-adv-x="1058" d="M92 414q0 182 127 311t307 129q188 0 314 -126t126 -312t-127 -312t-313 -126q-180 0 -307 128t-127 308zM176 416q0 -150 102 -256t244 -106q154 0 257 104t103 258t-103 258t-257 104q-144 0 -245 -106t-101 -256zM284 1078q0 30 22 51t54 21q30 0 52 -21t22 -51 q0 -32 -22 -54t-52 -22t-53 23t-23 53zM624 1078q0 30 22 51t54 21q30 0 52 -21t22 -51q0 -32 -22 -54t-52 -22q-32 0 -54 21t-22 55z" />
<glyph unicode="&#xf7;" horiz-adv-x="1124" d="M20 478v112h1078v-112h-1078zM432 118q0 52 38 90t90 38t89 -38t37 -90t-37 -89t-89 -37t-90 37t-38 89zM432 936q0 52 38 89t90 37t89 -37t37 -89t-37 -90t-89 -38t-90 38t-38 90z" />
<glyph unicode="&#xf8;" horiz-adv-x="1072" d="M92 26l112 112q-98 118 -98 278q0 182 126 310t308 128q158 0 282 -98l110 110l48 -50l-108 -110q108 -120 108 -290q0 -186 -127 -312t-313 -126q-154 0 -288 110l-108 -108zM190 416q0 -126 72 -224l498 508q-102 78 -224 78q-144 0 -245 -106t-101 -256zM312 142 q102 -88 224 -88q154 0 258 104t104 256q0 138 -86 240z" />
<glyph unicode="&#xf9;" horiz-adv-x="892" d="M146 310v526h82v-498q0 -130 26 -184q22 -44 75 -72t117 -28q62 0 115 28t75 72q28 60 28 184v498h82v-526q0 -158 -62 -230q-86 -102 -238 -102q-154 0 -240 102q-36 40 -48 90t-12 140zM226 1218l90 52l186 -280l-62 -34z" />
<glyph unicode="&#xfa;" horiz-adv-x="892" d="M146 310v526h82v-498q0 -130 26 -184q22 -44 75 -72t117 -28q62 0 115 28t75 72q28 60 28 184v498h82v-526q0 -158 -62 -230q-86 -102 -238 -102q-154 0 -240 102q-36 40 -48 90t-12 140zM398 990l186 280l90 -52l-218 -262z" />
<glyph unicode="&#xfb;" horiz-adv-x="892" d="M146 310v526h82v-498q0 -130 26 -184q22 -44 75 -72t117 -28q62 0 115 28t75 72q28 60 28 184v498h82v-526q0 -158 -62 -230q-86 -102 -238 -102q-154 0 -240 102q-36 40 -48 90t-12 140zM196 1008l248 192l250 -192l-68 -52l-182 140l-182 -140z" />
<glyph unicode="&#xfc;" horiz-adv-x="892" d="M146 310v526h82v-498q0 -130 26 -184q22 -44 75 -72t117 -28q62 0 115 28t75 72q28 60 28 184v498h82v-526q0 -158 -62 -230q-86 -102 -238 -102q-154 0 -240 102q-36 40 -48 90t-12 140zM200 1078q0 30 22 51t54 21q30 0 52 -21t22 -51q0 -32 -22 -54t-52 -22t-53 23 t-23 53zM540 1078q0 30 22 51t54 21q30 0 52 -21t22 -51q0 -32 -22 -54t-52 -22q-32 0 -54 21t-22 55z" />
<glyph unicode="&#xfd;" horiz-adv-x="876" d="M16 836h96l342 -742l312 742h94l-560 -1326h-94l206 476zM392 990l186 280l88 -52l-216 -262z" />
<glyph unicode="&#xfe;" horiz-adv-x="1054" d="M146 -490v1982h82v-806q116 168 320 168q182 0 298 -124t116 -318q0 -192 -114 -313t-296 -121q-200 0 -324 168v-636h-82zM222 402q0 -152 94 -250t240 -98q136 0 229 103t93 255q0 156 -94 261t-234 105q-148 0 -238 -103t-90 -273z" />
<glyph unicode="&#xff;" horiz-adv-x="876" d="M16 836h96l342 -742l312 742h94l-560 -1326h-94l206 476zM206 1078q0 30 22 51t54 21q30 0 52 -21t22 -51q0 -32 -22 -54t-52 -22t-53 23t-23 53zM546 1078q0 30 22 51t54 21q30 0 52 -21t22 -51q0 -32 -22 -54t-52 -22q-34 0 -55 21t-21 55z" />
<glyph unicode="&#x152;" horiz-adv-x="2192" d="M108 684q0 286 211 493t503 207q192 0 356 -100t254 -272v354h652v-82h-564v-496h550v-82h-550v-624h564v-82h-652v352q-92 -176 -256 -275t-360 -99q-286 0 -497 210t-211 496zM200 684q0 -254 183 -438t435 -184q250 0 431 183t181 437t-179 436t-429 182 q-252 0 -437 -183t-185 -433z" />
<glyph unicode="&#x153;" horiz-adv-x="1776" d="M92 414q0 184 128 312t316 128q126 0 227 -64t161 -182q46 118 140 182t222 64q180 0 290 -120t112 -322h-718q4 -160 94 -259t230 -99q194 0 296 194l68 -42q-124 -228 -362 -228q-264 0 -372 248q-134 -248 -392 -248q-184 0 -312 126t-128 310zM176 412 q0 -148 103 -253t247 -105q148 0 253 104t105 250q0 152 -103 261t-247 109q-152 0 -255 -106t-103 -260zM976 490h622q-26 140 -107 214t-209 74q-120 0 -200 -75t-106 -213z" />
<glyph unicode="&#x178;" horiz-adv-x="1052" d="M26 1366h104l388 -686l400 686h104l-460 -782v-584h-88v584zM256 1598q0 34 23 56t57 22q32 0 55 -22t23 -56t-22 -57t-56 -23t-57 23t-23 57zM636 1598q0 34 23 56t57 22q32 0 55 -22t23 -56t-22 -57t-56 -23t-57 23t-23 57z" />
<glyph unicode="&#x2c6;" horiz-adv-x="1024" d="M262 1008l248 192l250 -192l-68 -52l-182 140l-182 -140z" />
<glyph unicode="&#x2dc;" horiz-adv-x="1024" d="M252 1036q52 118 142 118q38 0 122 -36q86 -36 116 -36q56 0 88 76l54 -42q-18 -54 -58 -85t-90 -31q-26 0 -114 34q-94 38 -126 38q-56 0 -80 -74z" />
<glyph unicode="&#x3bc;" horiz-adv-x="1178" d="M68 -308q0 62 34 194q24 92 24 154v984h182v-678q0 -108 49 -168t137 -60q124 0 228 150v756h184v-756q0 -82 28 -133t72 -51q38 0 67 41t33 99l56 -2q-22 -120 -85 -184t-161 -64q-78 0 -123 44t-69 146q-162 -190 -316 -190q-52 0 -95 20t-107 74q0 -84 26 -176 q38 -134 38 -188q0 -70 -28 -111t-74 -41q-44 0 -72 40t-28 100z" />
<glyph unicode="&#x2000;" horiz-adv-x="888" />
<glyph unicode="&#x2001;" horiz-adv-x="1776" />
<glyph unicode="&#x2002;" horiz-adv-x="888" />
<glyph unicode="&#x2003;" horiz-adv-x="1776" />
<glyph unicode="&#x2004;" horiz-adv-x="592" />
<glyph unicode="&#x2005;" horiz-adv-x="444" />
<glyph unicode="&#x2006;" horiz-adv-x="296" />
<glyph unicode="&#x2007;" horiz-adv-x="296" />
<glyph unicode="&#x2008;" horiz-adv-x="222" />
<glyph unicode="&#x2009;" horiz-adv-x="354" />
<glyph unicode="&#x200a;" horiz-adv-x="98" />
<glyph unicode="&#x2010;" horiz-adv-x="344" d="M0 382v82h344v-82h-344z" />
<glyph unicode="&#x2011;" horiz-adv-x="344" d="M0 382v82h344v-82h-344z" />
<glyph unicode="&#x2012;" horiz-adv-x="344" d="M0 382v82h344v-82h-344z" />
<glyph unicode="&#x2013;" d="M256 382v82h608v-82h-608z" />
<glyph unicode="&#x2014;" horiz-adv-x="1034" d="M0 382v82h1034v-82h-1034z" />
<glyph unicode="&#x2018;" horiz-adv-x="464" d="M130 1034l150 410l54 -20l-124 -414z" />
<glyph unicode="&#x2019;" horiz-adv-x="464" d="M130 1028l122 416l82 -24l-152 -410z" />
<glyph unicode="&#x201a;" horiz-adv-x="464" d="M130 -280l122 414l82 -26l-152 -410z" />
<glyph unicode="&#x201c;" horiz-adv-x="702" d="M130 1034l150 410l54 -20l-124 -414zM366 1034l152 410l54 -20l-124 -414z" />
<glyph unicode="&#x201d;" horiz-adv-x="702" d="M130 1028l122 416l82 -24l-152 -410zM366 1028l124 416l82 -24l-152 -410z" />
<glyph unicode="&#x201e;" horiz-adv-x="702" d="M130 -280l122 414l82 -26l-152 -410zM366 -280l124 414l82 -26l-152 -410z" />
<glyph unicode="&#x2022;" horiz-adv-x="1366" d="M402 694q0 118 83 200t203 82q116 0 198 -83t82 -199q0 -118 -82 -201t-198 -83q-120 0 -203 83t-83 201z" />
<glyph unicode="&#x2026;" horiz-adv-x="1312" d="M144 62q0 30 22 52t54 22q30 0 51 -22t21 -52q0 -32 -21 -54t-51 -22t-53 23t-23 53zM580 62q0 30 22 52t54 22q30 0 52 -22t22 -52q0 -32 -22 -54t-52 -22t-53 23t-23 53zM1018 62q0 30 22 52t54 22q30 0 52 -22t22 -52q0 -32 -22 -54t-52 -22t-53 23t-23 53z" />
<glyph unicode="&#x202f;" horiz-adv-x="354" />
<glyph unicode="&#x2039;" horiz-adv-x="492" d="M68 424l264 306l50 -50l-216 -256l216 -258l-50 -50z" />
<glyph unicode="&#x203a;" horiz-adv-x="492" d="M108 166l220 258l-220 256l52 50l264 -306l-264 -308z" />
<glyph unicode="&#x205f;" horiz-adv-x="444" />
<glyph unicode="&#x2122;" horiz-adv-x="1476" d="M2 1294v72h464v-72h-196v-706h-76v706h-192zM546 588l92 842l332 -714l336 712l92 -840h-74l-64 568l-290 -614l-286 614l-62 -568h-76z" />
<glyph unicode="&#xe000;" horiz-adv-x="835" d="M0 835h835v-835h-835v835z" />
<glyph unicode="&#xfb01;" horiz-adv-x="810" d="M54 760v76h92v396q0 286 214 286q40 0 78 -12v-76q-46 10 -68 10q-74 0 -108 -53t-34 -171v-380h210v-76h-210v-760h-82v760h-92zM548 1114q0 30 22 52t54 22q30 0 52 -22t22 -52q0 -32 -22 -54t-52 -22q-32 0 -54 21t-22 55zM582 0v836h82v-836h-82z" />
<glyph unicode="&#xfb02;" horiz-adv-x="810" d="M54 760v76h92v396q0 286 214 286q40 0 78 -12v-76q-46 10 -68 10q-74 0 -108 -53t-34 -171v-380h210v-76h-210v-760h-82v760h-92zM582 0v1492h82v-1492h-82z" />
<glyph unicode="&#xfb03;" horiz-adv-x="1246" d="M984 1114q0 30 22 52t54 22q30 0 52 -22t22 -52q0 -32 -22 -54t-52 -22q-32 0 -54 21t-22 55zM1018 0v836h82v-836h-82zM490 760v76h92v396q0 286 214 286q40 0 78 -12v-76q-46 10 -68 10q-74 0 -108 -53t-34 -171v-380h210v-76h-210v-760h-82v760h-92zM54 760v76h92v396 q0 286 214 286q40 0 78 -12v-76q-46 10 -68 10q-74 0 -108 -53t-34 -171v-380h210v-76h-210v-760h-82v760h-92z" />
<glyph unicode="&#xfb04;" horiz-adv-x="1246" d="M1018 0v1492h82v-1492h-82zM490 760v76h92v396q0 286 214 286q40 0 78 -12v-76q-46 10 -68 10q-74 0 -108 -53t-34 -171v-380h210v-76h-210v-760h-82v760h-92zM54 760v76h92v396q0 286 214 286q40 0 78 -12v-76q-46 10 -68 10q-74 0 -108 -53t-34 -171v-380h210v-76h-210 v-760h-82v760h-92z" />
</font>
</defs>
</svg>
